<svg width="100" height="90" xmlns="http://www.w3.org/2000/svg" xmlns:xlink="http://www.w3.org/1999/xlink"><defs><path id="a" d="M0 0h100v65H0z"/></defs><g fill="none" fill-rule="evenodd"><g transform="translate(0 7)"><mask id="b" fill="#fff"><use xlink:href="#a"/></mask><path d="M48.381 37.703C52.765 32.966 59.036 30 66 30c13.255 0 24 10.745 24 24S79.255 78 66 78c-6.643 0-12.656-2.7-17.002-7.06a12.87 12.87 0 01-1.565 1.58c-2.555 2.177-6.09 3.377-9.713 3.974A22.88 22.88 0 0129.5 78c-6.848 0-12.912-2.948-16.635-7.479-.23-.26-.452-.529-.665-.807-2.284-2.989-3.337-6.82-3.45-10.603-.114-3.783.657-7.543 1.72-11.17.934-3.187 2.11-6.427 1.795-9.736-.288-3.022-2.09-5.686-3.215-8.512A19.155 19.155 0 017 21.038C7 10.524 15.416 2 25.797 2c10.382 0 18.798 8.524 18.798 19.038 0 2.042-.317 4.008-.904 5.851 1.756 3.522 3.4 7.12 4.69 10.814z" fill="#E3F0FF" mask="url(#b)"/></g><path d="M11 72h76.375M3 72h2.448M94 72h2.448" stroke="#53576A" stroke-width="2" stroke-linecap="round" stroke-linejoin="round"/><path d="M19 76a4.992 4.992 0 01-2-4v-7a5 5 0 015-5h1v-6a5 5 0 015-5h43a5 5 0 015 5v4a5 5 0 01-5 5h-1.416c.268.612.416 1.289.416 2v2.17c1.165.413 2 1.524 2 2.83v9a3 3 0 01-3 3H22a3 3 0 01-3-3v-3z" fill="#F4E58C"/><path fill="#FFF" d="M26.742 52.766v9.607h-5.134L20 64.305l.518 6.964 1.925 1.644v9.196H75.25l2.025-1.426v-7.77l-2.025-1.644.019-9.922h3.704V52.08L77.276 51H27.71z"/><path fill="#F4E58C" d="M30 63h17v11H30zm33.28.542v16.757l2.267-2.588 3.416 2.588-.28-16.737z"/><path d="M55.251 28.676c.05-1.217.086-6.261 4.17-4.074 4.086 2.188-4.22 5.29-4.17 4.074z" fill="#3FC688"/><path d="M51.898 33.648c-1.619-1.167-3.246-1.509-4.882-1.025-2.454.726-4.272 5.637-3.986 6.266.286.629.445 6.062 2.048 7.505 1.602 1.442 2.808 2.657 4.598 2.4 1.194-.171 1.934-.542 2.222-1.113 3.129 2.473 5.726 1.845 7.793-1.885 2.066-3.73 2.066-7.456 0-11.182-1.423-1.943-3.015-2.803-4.776-2.58-1.76.225-2.766.762-3.017 1.614z" fill="#FEBBBB"/><path d="M49 50c1.261 0 2.359-.5 3-.872.641.372 1.739.872 3 .872 1.862 0 3.943-1.117 4.832-2.58.088-.141 2.168-3.497 2.168-9.031C62 34.314 58.86 31 55 31c-1.131 0-2.162.438-3 .904-.838-.466-1.869-.904-3-.904-3.86 0-7 3.314-7 7.389 0 6.254 1.843 8.684 2.244 9.137C45.148 48.727 47.004 50 49 50zm0-16.889c.892 0 1.804.488 2.499.913.31.19.692.19 1.002 0 .695-.425 1.607-.913 2.499-.913 2.757 0 5 2.368 5 5.278 0 4.858-1.815 7.832-1.842 7.874-.467.769-1.878 1.626-3.158 1.626-1.289 0-2.396-.841-2.403-.847a.962.962 0 00-1.194 0c-.01.009-1.114.847-2.403.847-1.274 0-2.604-.877-3.209-1.702a1.35 1.35 0 00-.077-.093C45.697 46.075 44 44.112 44 38.39c0-2.91 2.243-5.278 5-5.278zm2.143-3.596a.998.998 0 001.372.342 1 1 0 00.342-1.372l-3-5a1 1 0 10-1.714 1.03l3 5zm3.769.243c.074.024.752.242 1.648.242h.001c1.27 0 2.375-.433 3.191-1.25 1.943-1.942 1.047-4.72 1.008-4.837a1.065 1.065 0 00-.671-.671 5.645 5.645 0 00-1.65-.242c-1.27 0-2.374.432-3.192 1.249-1.943 1.943-1.045 4.72-1.007 4.837.106.318.354.566.672.672zm1.837-4.009c.416-.416.984-.627 1.69-.627.15 0 .29.01.416.025.064.571.035 1.464-.605 2.103-.416.416-.985.628-1.69.628-.149 0-.29-.01-.415-.025-.065-.573-.035-1.465.604-2.104zM76.948 51H28.12c-1.682 0-3.051 1.388-3.051 3.094v4.125c0 .569.455 1.031 1.017 1.031.561 0 1.017-.462 1.017-1.031v-4.125c0-.568.457-1.031 1.017-1.031h3.052v5.156c0 .57.456 1.031 1.017 1.031.562 0 1.017-.462 1.017-1.031v-5.156h26.449v5.156c0 .57.455 1.031 1.017 1.031.561 0 1.017-.462 1.017-1.031v-5.156h10.172v5.156c0 .57.456 1.031 1.018 1.031.561 0 1.017-.462 1.017-1.031v-5.156h3.052c.56 0 1.017.463 1.017 1.03v7.22h-3.052c-.561 0-1.017.462-1.017 1.03v9.282h-1.017c-.562 0-1.018.462-1.018 1.031 0 .57.456 1.031 1.018 1.031h3.051v7.22c0 .567-.456 1.03-1.017 1.03H43.38v-5.156c0-.57-.456-1.031-1.017-1.031-.562 0-1.017.462-1.017 1.031v5.156H39.31v-5.156c0-.57-.456-1.031-1.017-1.031-.562 0-1.017.462-1.017 1.031v5.156H35.24v-5.156c0-.57-.456-1.031-1.017-1.031-.562 0-1.017.462-1.017 1.031v5.156h-9.155c-.56 0-1.018-.463-1.018-1.03V76.78c0-.569-.455-1.031-1.017-1.031-.561 0-1.017.462-1.017 1.031v4.125C21 82.612 22.37 84 24.052 84h50.862c1.682 0 3.051-1.388 3.051-3.094v-7.219c0-1.34-1.047-2.062-2.034-2.062v-8.25h2.034c.987 0 2.035-.723 2.035-2.063v-7.218C80 52.388 78.63 51 76.948 51z" fill="#53576A" fill-rule="nonzero"/><path d="M58.75 74.667c.562 0 1.02-.473 1.02-1.056 0-.583-.458-1.055-1.02-1.055H47.538V64.11h14.27v15.833c0 .39.206.748.538.931a.994.994 0 001.047-.052l2.492-1.72 2.492 1.72a.993.993 0 001.046.052 1.06 1.06 0 00.539-.93V64.11h1.019c.562 0 1.019-.473 1.019-1.055 0-.583-.457-1.056-1.02-1.056H22.059C20.343 62 19 63.391 19 65.167V71.5c0 1.746 1.372 3.167 3.058 3.167H58.75zm5.096-10.556h4.077v13.86l-1.473-1.016a.991.991 0 00-1.131 0l-1.473 1.017V64.11zm-32.615 0H45.5v8.445H31.23V64.11zM21.038 71.5v-6.333c0-.602.438-1.056 1.02-1.056h7.134v8.445h-7.134c-.572 0-1.02-.464-1.02-1.056z" fill="#53576A" fill-rule="nonzero"/><path d="M40 65a1 1 0 00-1 1v2a1 1 0 002 0v-2a1 1 0 00-1-1zm-4 0a1 1 0 00-1 1v2a1 1 0 002 0v-2a1 1 0 00-1-1z" fill="#53576A" fill-rule="nonzero"/></g></svg>