<svg width="100" height="92" xmlns="http://www.w3.org/2000/svg" xmlns:xlink="http://www.w3.org/1999/xlink"><defs><path id="a" d="M0 0h100v71H0z"/></defs><g fill="none" fill-rule="evenodd"><g transform="translate(0 7)"><mask id="b" fill="#fff"><use xlink:href="#a"/></mask><path d="M48.381 37.703C52.765 32.966 59.036 30 66 30c13.255 0 24 10.745 24 24S79.255 78 66 78c-6.643 0-12.656-2.7-17.002-7.06a12.87 12.87 0 01-1.565 1.58c-2.555 2.177-6.09 3.377-9.713 3.974A22.88 22.88 0 0129.5 78c-6.848 0-12.912-2.948-16.635-7.479-.23-.26-.452-.529-.665-.807-2.284-2.989-3.337-6.82-3.45-10.603-.114-3.783.657-7.543 1.72-11.17.934-3.187 2.11-6.427 1.795-9.736-.288-3.022-2.09-5.686-3.215-8.512A19.155 19.155 0 017 21.038C7 10.524 15.416 2 25.797 2c10.382 0 18.798 8.524 18.798 19.038 0 2.042-.317 4.008-.904 5.851 1.756 3.522 3.4 7.12 4.69 10.814z" fill="#E3F0FF" mask="url(#b)"/></g><path d="M11 78a1 1 0 010-2h76.375a1 1 0 010 2H11zm83 0a1 1 0 010-2h2.448a1 1 0 010 2H94zM3 78a1 1 0 010-2h2.448a1 1 0 010 2H3z" fill="#53576A" fill-rule="nonzero"/><circle fill="#F4E58C" cx="45.984" cy="46.5" r="8.5"/><path d="M31.83 76h28.654c-1.488-11.333-6.654-17-15.5-17-8.204 0-13.243 4.874-15.118 14.622A2 2 0 0031.83 76z" fill="#F4E58C"/><circle fill="#FFF" cx="51.5" cy="48.5" r="8.5"/><path fill="#F4E58C" d="M50.647 15.391l-2.685 4.65-5.476.885 4.08 4.591-1.083 4.932 5.164-2.005 5.637 2.005v-4.932l3.174-3.93-5.568-1.546zm20 11l-2.685 4.65-5.476.885 4.08 4.591-1.083 4.932 5.164-2.005 5.637 2.005v-4.932l3.174-3.93-5.568-1.546zm-42 0l-2.685 4.65-5.476.885 4.08 4.591-1.083 4.932 5.164-2.005 5.637 2.005v-4.932l3.174-3.93-5.568-1.546z"/><path d="M33.93 77.416h31.023c-1.488-10.881-6.659-16.322-15.511-16.322s-14.023 5.44-15.512 16.322z" fill="#FFF"/><path d="M51 58c5.514 0 10-4.262 10-9.5S56.514 39 51 39s-10 4.262-10 9.5S45.486 58 51 58zm0-17.074c4.396 0 7.973 3.397 7.973 7.574 0 4.176-3.577 7.574-7.973 7.574s-7.973-3.398-7.973-7.574c0-4.177 3.577-7.574 7.973-7.574zm-1.5 21.066c7.708 0 14.036 6.2 14.535 14.016H41.698c-.533 0-.966.446-.966.996s.433.996.966.996h23.336c.533 0 .966-.446.966-.996C66 67.628 58.598 60 49.5 60 40.402 60 33 67.628 33 77.004c0 .55.433.996.966.996h3.866c.534 0 .967-.446.967-.996s-.433-.996-.967-.996h-2.867c.499-7.815 6.827-14.016 14.535-14.016zM38.147 31.153l-5.61-.886-2.63-4.75A1.032 1.032 0 0029 25c-.381 0-.73.2-.907.518l-2.629 4.749-5.61.886c-.376.06-.686.31-.804.652a.923.923 0 00.243.972l3.985 3.821-.838 5.297a.938.938 0 00.41.921c.309.211.716.243 1.058.083L29 40.512l5.092 2.387a1.076 1.076 0 001.057-.083.938.938 0 00.41-.92l-.837-5.298 3.985-3.821a.923.923 0 00.243-.972 1.006 1.006 0 00-.803-.652zm-5.242 4.439a.928.928 0 00-.281.816l.624 3.944-3.792-1.778a1.08 1.08 0 00-.912 0l-3.791 1.778.624-3.944a.927.927 0 00-.282-.816l-2.968-2.846 4.178-.66c.316-.05.59-.237.737-.504L29 28.046l1.958 3.536c.148.267.421.454.738.504l4.177.66-2.968 2.846zm27.241-15.439l-5.61-.886-2.63-4.75A1.032 1.032 0 0051 14c-.381 0-.73.2-.907.518l-2.63 4.749-5.61.886c-.375.06-.685.31-.803.652a.923.923 0 00.243.972l3.985 3.821-.838 5.297a.938.938 0 00.41.921c.309.211.717.243 1.058.083L51 29.512l5.092 2.387a1.076 1.076 0 001.057-.083.938.938 0 00.41-.92l-.837-5.298 3.985-3.821a.923.923 0 00.243-.972 1.007 1.007 0 00-.804-.652zm-5.24 4.439a.928.928 0 00-.283.816l.624 3.944-3.791-1.778a1.075 1.075 0 00-.912 0l-3.791 1.778.624-3.944a.927.927 0 00-.282-.816l-2.968-2.846 4.178-.66c.316-.05.59-.237.737-.504L51 17.046l1.958 3.536c.148.268.421.454.737.504l4.178.66-2.968 2.846zm26.044 7.213a1.006 1.006 0 00-.804-.652l-5.61-.886-2.63-4.75A1.032 1.032 0 0071 25c-.381 0-.73.2-.907.518l-2.63 4.749-5.61.886c-.375.06-.685.31-.803.652a.923.923 0 00.243.972l3.985 3.821-.838 5.297a.938.938 0 00.41.921c.309.211.716.243 1.058.083L71 40.512l5.092 2.387a1.076 1.076 0 001.057-.083.938.938 0 00.41-.92l-.838-5.298 3.986-3.821a.922.922 0 00.243-.972zm-6.045 3.787a.928.928 0 00-.281.816l.624 3.944-3.792-1.778a1.075 1.075 0 00-.912 0l-3.791 1.778.624-3.944a.927.927 0 00-.282-.816l-2.967-2.846 4.177-.66c.316-.05.59-.237.738-.504L71 28.046l1.958 3.536c.148.267.421.454.738.504l4.177.66-2.968 2.846z" fill="#53576A" fill-rule="nonzero"/><path d="M51 52c1.43 0 2.79-.53 3.732-1.456.396-.389.348-.978-.107-1.315-.455-.338-1.144-.297-1.54.092-.526.518-1.287.815-2.085.815s-1.558-.297-2.086-.815c-.395-.389-1.084-.43-1.539-.092-.455.337-.503.926-.107 1.315C48.21 51.469 49.57 52 51 52z" fill="#FEBBBB" fill-rule="nonzero"/></g></svg>