<svg width="100" height="92" xmlns="http://www.w3.org/2000/svg" xmlns:xlink="http://www.w3.org/1999/xlink"><defs><path id="a" d="M0 0h100v65H0z"/></defs><g fill="none" fill-rule="evenodd"><g transform="translate(0 7)"><mask id="b" fill="#fff"><use xlink:href="#a"/></mask><path d="M48.381 37.703C52.765 32.966 59.036 30 66 30c13.255 0 24 10.745 24 24S79.255 78 66 78c-6.643 0-12.656-2.7-17.002-7.06a12.87 12.87 0 01-1.565 1.58c-2.555 2.177-6.09 3.377-9.713 3.974A22.88 22.88 0 0129.5 78c-6.848 0-12.912-2.948-16.635-7.479-.23-.26-.452-.529-.665-.807-2.284-2.989-3.337-6.82-3.45-10.603-.114-3.783.657-7.543 1.72-11.17.934-3.187 2.11-6.427 1.795-9.736-.288-3.022-2.09-5.686-3.215-8.512A19.155 19.155 0 017 21.038C7 10.524 15.416 2 25.797 2c10.382 0 18.798 8.524 18.798 19.038 0 2.042-.317 4.008-.904 5.851 1.756 3.522 3.4 7.12 4.69 10.814z" fill="#E3F0FF" mask="url(#b)"/></g><path d="M11 74h76.375a1 1 0 000-2H11a1 1 0 000 2z" fill="#53576A" fill-rule="nonzero"/><path d="M3 73h2.448" stroke="#53576A" stroke-width="2" stroke-linecap="round" stroke-linejoin="round"/><path d="M94 74h2.448a1 1 0 000-2H94a1 1 0 000 2z" fill="#53576A" fill-rule="nonzero"/><rect fill="#F4E58C" x="15" y="57" width="10" height="29" rx="3"/><path d="M29.979 63.066l.045 14.588 5.848 1.055 9.286 4.156 10.223 1.07 9.76-3.258 7.987-5.356 4.465-3.705c.571-3.197-.54-4.633-3.335-4.31-2.795.323-5.92 1.874-9.374 4.655l-8.989 2.745-5.888-.172c-6.904-.822-7.685-1.15-2.343-.982 8.012.25 11.298-.11 11.622-2.57.216-1.641-2.946-2.236-9.486-1.785l-9.803-5.495-4.903-.636h-5.115zM18 58h5a4 4 0 014 4v20a4 4 0 01-4 4h-5V58z" fill="#FFF"/><path d="M30.033 64H38.3c1.205 0 3.255 1.488 5.064 2.8 2.267 1.646 4.408 3.2 6.303 3.2h6.2c1.569 0 2.349.689 2.37.707.201.195.466.293.73.293.265 0 .528-.098.73-.293a.978.978 0 000-1.414C59.56 69.161 58.292 68 55.868 68h-6.2c-1.206 0-3.255-1.488-5.063-2.8-2.269-1.646-4.41-3.2-6.304-3.2h-8.267c-.571 0-1.033.448-1.033 1s.462 1 1.033 1zM22 79.5c0-.827-.673-1.5-1.5-1.5s-1.5.673-1.5 1.5.673 1.5 1.5 1.5 1.5-.673 1.5-1.5z" fill="#53576A" fill-rule="nonzero"/><path d="M78.44 67.114a4.148 4.148 0 00-2.53-1.966c-1.076-.293-2.199-.144-3.097.386l-11.989 5.912c-1.862.945-3.744.945-7.866.945-4.031 0-10.184-1.031-10.246-1.04a1.045 1.045 0 00-1.199.866c-.093.575.29 1.118.856 1.215.26.044 6.385 1.07 10.589 1.07 4.324 0 6.495 0 8.788-1.162l12.044-5.943a2.07 2.07 0 012.846.773c.278.488.351 1.057.207 1.602a2.11 2.11 0 01-1 1.299L61.76 79.95c-.03.02-3.034 1.938-9.844 1.938-5.905 0-15.028-5.093-15.159-5.166-.094-.047-2.353-1.166-6.715-1.166-.576 0-1.042.473-1.042 1.055 0 .583.466 1.056 1.042 1.056 3.788 0 5.739.922 5.743.922.394.222 9.685 5.41 16.13 5.41 7.52 0 10.857-2.195 10.967-2.27l14.033-8.85a4.186 4.186 0 001.94-2.562 4.24 4.24 0 00-.415-3.204zM24 58h-6c-.553 0-1 .464-1 1.036 0 .571.447 1.035 1 1.035h6c.551 0 1 .465 1 1.036v22.786c0 .57-.449 1.036-1 1.036h-6c-.553 0-1 .464-1 1.035 0 .572.447 1.036 1 1.036h6c1.654 0 3-1.394 3-3.107V61.107C27 59.394 25.654 58 24 58z" fill="#53576A" fill-rule="nonzero"/><circle fill="#F4E58C" cx="53" cy="41" r="15"/><path d="M53 57c8.837 0 16-7.163 16-16s-7.163-16-16-16-16 7.163-16 16 7.163 16 16 16zm0-2c-7.732 0-14-6.268-14-14s6.268-14 14-14 14 6.268 14 14-6.268 14-14 14z" fill="#53576A" fill-rule="nonzero"/><path d="M53 36c1.103 0 2 .897 2 2a1 1 0 102 0c0-1.858-1.279-3.41-3-3.858V34a1 1 0 10-2 0v.142c-1.721.447-3 2-3 3.858 0 2.206 1.794 4 4 4 1.103 0 2 .897 2 2s-.897 2-2 2-2-.897-2-2a1 1 0 10-2 0c0 1.858 1.279 3.41 3 3.858V48a1 1 0 102 0v-.142c1.721-.447 3-2 3-3.858 0-2.206-1.794-4-4-4-1.103 0-2-.897-2-2s.897-2 2-2z" fill="#53576A" fill-rule="nonzero"/></g></svg>