<svg width="100" height="92" xmlns="http://www.w3.org/2000/svg" xmlns:xlink="http://www.w3.org/1999/xlink"><defs><path id="a" d="M0 0h100v65H0z"/></defs><g fill="none" fill-rule="evenodd"><g transform="translate(0 7)"><mask id="b" fill="#fff"><use xlink:href="#a"/></mask><path d="M48.381 37.703C52.765 32.966 59.036 30 66 30c13.255 0 24 10.745 24 24S79.255 78 66 78c-6.643 0-12.656-2.7-17.002-7.06a12.87 12.87 0 01-1.565 1.58c-2.555 2.177-6.09 3.377-9.713 3.974A22.88 22.88 0 0129.5 78c-6.848 0-12.912-2.948-16.635-7.479-.23-.26-.452-.529-.665-.807-2.284-2.989-3.337-6.82-3.45-10.603-.114-3.783.657-7.543 1.72-11.17.934-3.187 2.11-6.427 1.795-9.736-.288-3.022-2.09-5.686-3.215-8.512A19.155 19.155 0 017 21.038C7 10.524 15.416 2 25.797 2c10.382 0 18.798 8.524 18.798 19.038 0 2.042-.317 4.008-.904 5.851 1.756 3.522 3.4 7.12 4.69 10.814z" fill="#E3F0FF" mask="url(#b)"/></g><path d="M11 73h76.375M3 73h2.448M94 73h2.448" stroke="#53576A" stroke-width="2" stroke-linecap="round" stroke-linejoin="round"/><g transform="translate(20 17)"><path d="M38.447 5.732l-2-3.644c0-.056 0-.056-.056-.112 0-.056-.055-.056-.055-.113-.5-.897-1.334-1.457-2.223-1.738-.889-.224-1.889-.168-2.777.337L27.28 2.817 23.724.686h-.055L23.613.63s-.055 0-.055-.056A3.768 3.768 0 0020.78.18c-.889.225-1.722.841-2.222 1.739l-2.334 4.036-4.222-.056h-.11c-.945 0-1.834.393-2.5 1.01l-.056.056C8.669 7.638 8.28 8.536 8.28 9.6v4.71l-3.611 2.018h-.056s-.055 0-.055.056l-.056.056c-.889.504-1.444 1.345-1.722 2.243-.222.897-.167 1.906.333 2.803l2.334 4.093-2.111 3.588v.056l-.056.056s0 .056-.056.056a3.864 3.864 0 00-.388 2.804 3.613 3.613 0 001.722 2.242l4 2.355-.056 4.261v.112c0 .785.222 1.458.611 2.075L.17 58.77c-.167.28-.222.673-.111 1.066.222.616.889.897 1.5.672l7.944-3.195L38.447 5.732z" fill="#F4E58C" fill-rule="nonzero"/><path fill="#FFF" d="M12.86 9.661v5.892l-5.805 4.233 3.043 6.454-3.043 5.832 5.143 4.6.662 7.257-7.923 15.963 8.607-3.028 1.059 9.386 9.445-16.083L31.7 46.71l4.091 2.822 10.235 17.303 1.728-9.97 9.454 3.027-9.454-15.963 1.321-2.136v-5.12l5.135-3.602v-2.377l-2.87-5.139 2.87-5.77-5.135-4.232-.627-6.796-7.434-.781-3.489-5.69-7.437 2.9-5.026-2.9-4.472 5.69z"/><path d="M57.8 59.883L48.968 44.41c.611-.673.945-1.514.945-2.523v-4.71l3.61-2.018s.056 0 .056-.056h.056c.056 0 .111-.056.111-.056.833-.505 1.445-1.29 1.667-2.187.222-.897.166-1.906-.334-2.747 0-.056-.055-.056-.055-.112l-2.278-4.037 2.167-3.644.055-.056s0-.057.056-.057c.5-.897.611-1.906.389-2.803a3.613 3.613 0 00-1.722-2.243l-4-2.354.055-4.261v-.113c0-1.009-.389-1.962-1.055-2.635a3.55 3.55 0 00-2.556-1.065h-4.667l-2-3.644c0-.056 0-.056-.055-.112 0-.057-.056-.057-.056-.113-.5-.897-1.333-1.457-2.222-1.738-.889-.224-1.889-.168-2.778.337l-4.055 2.355-3.556-2.131h-.055l-.056-.056s-.056 0-.056-.056a3.768 3.768 0 00-2.777-.393c-.89.225-1.723.841-2.223 1.738l-2.333 4.037-4.222-.056h-.111c-.945 0-1.834.393-2.5 1.01l-.056.055c-.666.673-1.055 1.57-1.055 2.636v4.71L7.69 17.328h-.056s-.056 0-.056.056l-.055.056c-.889.504-1.445 1.345-1.722 2.242-.223.898-.167 1.907.333 2.804l2.333 4.093-2.11 3.588v.056l-.056.056s0 .056-.056.056a3.864 3.864 0 00-.389 2.804 3.613 3.613 0 001.722 2.242l4 2.355-.055 4.261v.112c0 .785.222 1.458.611 2.075L3.19 59.77c-.167.28-.223.673-.112 1.066.223.616.89.897 1.5.672l7.945-3.195 1.222 8.578c.056.336.222.673.556.84.555.337 1.277.113 1.61-.448l9-15.755c.612 0 1.279-.112 1.834-.448.056 0 .056-.056.111-.056l4-2.299c.056.056 3.89 2.355 3.667 2.187.222.112.611.392 1.389.504l9.11 15.923c.5 1.01 2 .785 2.168-.392l1.222-8.578 7.944 3.195c1 .393 2-.728 1.445-1.682zm-42.222 3.252l-1-6.672a1.232 1.232 0 00-1.333-1.009c-.111 0-.222.056-.333.112l-6.167 2.467 7.111-12.447c.278.113.611.169.89.169h4.666c2.61 4.765 1.833 3.251 2.055 3.756.111.224.445.729.89 1.121l-6.779 12.503zm21.556-14.24a.89.89 0 01-.5.168h-.111c-.667.056-.556-.113-5.056-2.748-.389-.224-.833-.224-1.166 0l-4.611 2.691c-.334.169-.667.225-1 .113-.556-.169-.723-.561-.778-.617-.111-.224-.111-.168-.111-.224l-2.334-4.205a1.19 1.19 0 00-1.055-.617h-5.278c-.222 0-.389-.056-.611-.168-.056-.056-.111-.056-.167-.112-.055 0-.055-.057-.055-.057a1.359 1.359 0 01-.39-.953v-.112l.056-4.99c0-.448-.222-.84-.555-1.009L8.8 33.364a1.195 1.195 0 01-.611-.785 1.27 1.27 0 01.11-1.01l.056-.055c0-.056.056-.056.056-.113l2.444-4.148c.222-.393.222-.841 0-1.178l-2.61-4.597c0-.056-.056-.056-.056-.113-.167-.336-.223-.672-.112-1.009.112-.336.278-.616.612-.785.055 0 .055-.056.11-.056h.056s.056 0 .056-.056l4.222-2.355c.389-.224.611-.616.611-1.065v-5.326c0-.393.167-.73.389-.953l.056-.056c.222-.225.555-.337.888-.337h.112l4.944.056c.444 0 .833-.224 1-.56L23.8 4.209c.166-.336.5-.56.777-.617a1.24 1.24 0 01.9.06c.018.002.03.01.04.02.02.011.041.02.06.033L29.69 6.17c.388.225.833.225 1.166 0l4.611-2.635c.056 0 .056-.056.111-.056.334-.168.667-.224 1-.112.334.112.612.28.778.617 0 0 0 .056.056.056v.056c0 .056.055.056.055.112l2.334 4.205a1.19 1.19 0 001.055.617h5.278a1.334 1.334 0 011.333 1.345v.113l-.055 4.99c0 .448.222.84.555 1.009l4.611 2.691c.334.168.556.505.612.785a1.27 1.27 0 01-.112 1.01l-.055.055v.056l-2.5 4.205c-.222.393-.222.841 0 1.178l2.667 4.653c.166.337.222.673.11 1.01-.11.336-.277.616-.61.784h-.112s-.055 0-.055.056l-4.278 2.58a1.204 1.204 0 00-.611 1.065v5.326c0 .393-.167.73-.389.953-.389.393-.778.393-1.055.393l-4.834-.056a1.125 1.125 0 00-1.11.56c-.054.054-2.626 4.532-2.725 4.712-.055.057-.108.166-.054.11-.11.112-.11.168-.333.28zm10.778 6.783a1.132 1.132 0 00-1.556.898l-1 6.671-7.055-12.334.055-.056a4.46 4.46 0 00.945-.841c.104-.159 2.478-4.25 2.611-4.486 1.223 0 2.722.056 4.555.056.167 0 .278 0 .445-.056l7.222 12.615-6.222-2.467z" fill="#53576A" fill-rule="nonzero"/><circle fill="#DCECFF" cx="31" cy="27" r="14"/><path fill="#F4E58C" d="M29.916 18.885l-1.593 3.538-5.323.863 3.458 4.08-.85 5.634 5.294-1.9L35.17 33v-5.117L39 24.237l-5.085-1.814L31 18z"/><path d="M42.324 15.676A15.925 15.925 0 0031 11c-4.45 0-8.45 1.803-11.324 4.676A15.925 15.925 0 0015 27c0 4.45 1.803 8.45 4.676 11.324A15.925 15.925 0 0031 43c4.394 0 8.45-1.803 11.324-4.676A15.962 15.962 0 0047 27c0-4.45-1.803-8.45-4.676-11.324zm-1.69 21.014a13.669 13.669 0 01-9.69 4 13.669 13.669 0 01-9.69-4 13.669 13.669 0 01-4-9.69c0-3.775 1.52-7.211 4-9.69 2.478-2.479 5.915-4 9.69-4a13.67 13.67 0 019.69 4c2.479 2.479 4 5.915 4 9.69 0 3.775-1.521 7.211-4 9.69z" fill="#53576A" fill-rule="nonzero"/><path d="M39.307 22.728c-.426-.443-.96-.664-1.599-.664h-3.517l-1.066-3.378v-.055c-.107-.333-.32-.665-.533-.942-.213-.221-.48-.388-.8-.554-.053-.055-.16-.055-.266-.055-.533-.166-1.12-.055-1.599.166-.48.277-.853.665-1.066 1.218-.053.056-.053.167-.053.222l-1.066 3.378h-3.358c-.373-.056-.746.055-1.119.221-.32.166-.64.388-.853.72-.373.499-.48 1.163-.373 1.717.107.609.373 1.163.906 1.55l2.825 2.16-1.066 3.489c0 .055 0 .055-.053.11a2.11 2.11 0 00-.054.997c.054.332.16.72.427.997.373.498.906.83 1.439.941.586.111 1.172-.055 1.652-.443l2.825-2.16 2.718 2.05c.266.276.64.443 1.012.498.373.055.747.055 1.12-.055.586-.222 1.066-.61 1.332-1.163.266-.554.32-1.163.16-1.772l-1.066-3.489 2.771-2.104c.054-.056.107-.056.16-.111.213-.222.427-.443.587-.72.16-.332.266-.664.266-1.052-.053-.72-.266-1.274-.693-1.717zm-1.652 1.717l-3.411 2.603c-.426.332-.586.886-.373 1.329l1.332 4.153v.055c-.053-.055-.106-.055-.106-.11l-3.358-2.548c-.426-.332-.96-.277-1.332 0l-3.465 2.658v-.055l1.333-4.209c.16-.498 0-.997-.427-1.273l-3.517-2.603h4.317c.48 0 .906-.332 1.066-.83l1.332-4.265v.056l1.28 4.208c.16.499.639.83 1.119.83l4.263-.054c-.053 0-.053.055-.053.055z" fill="#53576A" fill-rule="nonzero"/></g><path fill="#FEBBBB" d="M33.856 62.586l-7.11 12.447 3.576-1.41 6.302-10.889z"/></g></svg>