<svg width="100" height="92" xmlns="http://www.w3.org/2000/svg" xmlns:xlink="http://www.w3.org/1999/xlink"><defs><path id="a" d="M0 0h100v71H0z"/></defs><g fill="none" fill-rule="evenodd"><g transform="translate(0 7)"><mask id="b" fill="#fff"><use xlink:href="#a"/></mask><path d="M48.381 37.703C52.765 32.966 59.036 30 66 30c13.255 0 24 10.745 24 24S79.255 78 66 78c-6.643 0-12.656-2.7-17.002-7.06a12.87 12.87 0 01-1.565 1.58c-2.555 2.177-6.09 3.377-9.713 3.974A22.88 22.88 0 0129.5 78c-6.848 0-12.912-2.948-16.635-7.479-.23-.26-.452-.529-.665-.807-2.284-2.989-3.337-6.82-3.45-10.603-.114-3.783.657-7.543 1.72-11.17.934-3.187 2.11-6.427 1.795-9.736-.288-3.022-2.09-5.686-3.215-8.512A19.155 19.155 0 017 21.038C7 10.524 15.416 2 25.797 2c10.382 0 18.798 8.524 18.798 19.038 0 2.042-.317 4.008-.904 5.851 1.756 3.522 3.4 7.12 4.69 10.814z" fill="#E3F0FF" mask="url(#b)"/></g><path d="M51.309 44c-.298 0-.59.085-.841.24a1.61 1.61 0 00-.841-.24C48.73 44 48 44.743 48 45.656c0 .518.372 1.14 1.138 1.9.515.513 1.024.903 1.045.92a.468.468 0 00.57 0c.02-.017.53-.407 1.045-.92.765-.76 1.137-1.382 1.137-1.9 0-.913-.73-1.656-1.626-1.656zm-.841 3.504c-.784-.65-1.53-1.481-1.53-1.848 0-.396.309-.718.689-.718a.67.67 0 01.496.22.469.469 0 00.69 0 .67.67 0 01.496-.22c.38 0 .689.322.689.718 0 .366-.747 1.196-1.53 1.848z" fill="#000" fill-rule="nonzero"/><path d="M11 78a1 1 0 010-2h76.375a1 1 0 010 2H11zm-8 0a1 1 0 010-2h2.448a1 1 0 010 2H3zm91 0a1 1 0 010-2h2.448a1 1 0 010 2H94z" fill="#53576A" fill-rule="nonzero"/><g fill-rule="nonzero"><path d="M26.963 84.211l5.41-5.72 3.944.007a12.177 12.177 0 007.067-2.268l5.807-4.116c1.228-.87 1.54-2.638.692-3.919-.798-1.204-2.342-1.547-3.531-.785l-2.51 1.608c-.385.247-.784-.292-.466-.629l8.307-8.782c1.009-1.067 1.009-2.796 0-3.862a2.485 2.485 0 00-3.653 0l-5.804 6.135 1.816-1.905 5.804-6.136c1.009-1.067 1.009-2.796 0-3.862a2.485 2.485 0 00-3.653 0l-5.804 6.136-1.803 1.92 5.804-6.136c1.009-1.067 1.009-2.796 0-3.862a2.485 2.485 0 00-3.653 0l-5.804 6.135.007.007 1.52-1.606c1.008-1.067 1.008-2.796 0-3.862a2.485 2.485 0 00-3.654 0l-3.326 3.515 2.74-2.896-6.107 6.456c-2.378 2.514-3.712 5.925-3.707 9.48l.004 2.695-4.11 4.345a2 2 0 000 2.749l8.663 9.158z" fill="#F4E58C"/><path d="M61.68 83.098L75.54 69.24l-6.61-6.61.008-5.485a17.607 17.607 0 00-2.984-9.83l-5.415-8.077a3.672 3.672 0 00-5.173-.951c-1.586 1.123-1.977 3.317-.97 4.979l2.07 3.415c.325.534-.384 1.09-.826.648L40.403 32.092c-1.407-1.407-3.71-1.477-5.127-.08a3.59 3.59 0 00-.185 4.913l-2.222-2.222a3.593 3.593 0 00-5.033-.049c-1.45 1.398-1.406 3.772.018 5.196l2.156 2.156a3.59 3.59 0 00-4.912.185c-1.398 1.416-1.328 3.72.079 5.127l2.415 2.415a3.59 3.59 0 00-4.895.168 3.593 3.593 0 000 5.082l11.671 11.671 4.683 4.683a17.606 17.606 0 0012.475 5.157l3.545-.005 6.61 6.61z" fill="#F4E58C"/><path d="M65.911 86.656L79.77 72.797l-6.61-6.609.008-5.485a17.607 17.607 0 00-2.983-9.83l-5.416-8.077a3.672 3.672 0 00-5.173-.952c-1.585 1.123-1.977 3.318-.97 4.98l2.07 3.414c.325.535-.384 1.09-.826.648L44.634 35.65c-1.407-1.407-3.711-1.477-5.127-.08a3.59 3.59 0 00-.186 4.912L37.1 38.26a3.593 3.593 0 00-5.032-.048c-1.45 1.397-1.407 3.772.017 5.196l2.156 2.156a3.59 3.59 0 00-4.912.185c-1.398 1.416-1.327 3.72.08 5.127l2.414 2.415a3.59 3.59 0 00-4.895.168 3.593 3.593 0 000 5.081L38.6 70.212l4.683 4.683a17.606 17.606 0 0012.474 5.157l3.546-.005 6.61 6.609z" fill="#FFF"/><path d="M29.193 86.769l5.41-5.41 3.944.005a12.658 12.658 0 007.068-2.144l5.806-3.894a2.64 2.64 0 10-2.839-4.45l-2.51 1.521c-.384.234-.784-.276-.466-.594l8.308-8.308a2.583 2.583 0 00-3.653-3.653l-5.804 5.804 1.816-1.803 5.803-5.804a2.583 2.583 0 00-3.653-3.653L42.62 60.19l-1.803 1.816 5.804-5.804a2.583 2.583 0 00-3.653-3.653l-5.804 5.804.006.006 1.52-1.52a2.583 2.583 0 00-3.653-3.653l-3.326 3.326 2.74-2.74-6.107 6.107a12.658 12.658 0 00-3.707 8.968l.003 2.549-5.41 5.41 9.963 9.963z" fill="#FFF"/><path d="M60.172 80.177a1.23 1.23 0 00-.87-.36l-3.547.004h-.023a16.47 16.47 0 01-5.753-1.046l2.127-1.427a3.841 3.841 0 001.65-2.504 3.842 3.842 0 00-.635-2.93 3.875 3.875 0 00-3.238-1.648l4.9-4.901a3.818 3.818 0 00-1.242-6.224 3.79 3.79 0 00.522-1.928 3.79 3.79 0 00-1.117-2.697 3.789 3.789 0 00-2.696-1.117 3.79 3.79 0 00-1.929.522 3.814 3.814 0 00-.83-1.242 3.789 3.789 0 00-2.697-1.117 3.789 3.789 0 00-2.697 1.117l-1.76 1.76a3.816 3.816 0 00-.778-1.123 3.789 3.789 0 00-2.696-1.117 3.79 3.79 0 00-2.697 1.117l-.78.78-3.171-3.153a2.365 2.365 0 010-3.341 2.366 2.366 0 013.16-.164l3.07 3.071a1.227 1.227 0 001.74 0 1.23 1.23 0 000-1.74l-5.297-5.298a2.365 2.365 0 010-3.341 2.365 2.365 0 013.341 0l9.282 9.3a1.227 1.227 0 001.74 0c.48-.48.48-1.26 0-1.74l-7.055-7.073a2.366 2.366 0 01.164-3.16 2.365 2.365 0 013.34 0l2.586 2.585a1.23 1.23 0 101.74-1.74l-2.585-2.585a4.83 4.83 0 00-6.821 0 4.792 4.792 0 00-1.247 2.166 4.787 4.787 0 00-2.815-.906 4.79 4.79 0 00-3.41 1.413 4.83 4.83 0 00-.507 6.225 4.792 4.792 0 00-2.166 1.247 4.83 4.83 0 00-.299 6.493 4.792 4.792 0 00-2.119 1.234 4.83 4.83 0 000 6.821l.55.55a13.781 13.781 0 00-3.2 8.888l.002 2.039-5.049 5.049a1.23 1.23 0 001.74 1.74l5.41-5.41a1.23 1.23 0 00.36-.872l-.003-2.549a11.35 11.35 0 013.347-8.096l6.106-6.107.586-.585c.256-.256.595-.397.957-.397.361 0 .7.141.956.397.256.255.396.595.396.956 0 .31-.104.604-.295.843l-1.627 1.626a1.23 1.23 0 000 1.74l.003.004a1.229 1.229 0 001.744.003l5.797-5.81a1.34 1.34 0 01.956-.396 1.354 1.354 0 011.057 2.195l-5.904 5.918a1.23 1.23 0 001.74 1.74l7.607-7.62c.255-.255.595-.396.956-.396a1.354 1.354 0 01.956 2.31l-7.619 7.606a1.23 1.23 0 001.74 1.74l5.918-5.905a1.354 1.354 0 011.799.101 1.354 1.354 0 010 1.913l-8.307 8.308a1.593 1.593 0 00-.13 2.133 1.595 1.595 0 002.104.384l2.51-1.522a1.413 1.413 0 011.885.397c.219.313.3.692.23 1.067-.07.376-.283.7-.6.912l-5.806 3.894a11.387 11.387 0 01-6.364 1.936h-.017l-3.943-.005c-.328 0-.641.13-.872.36l-5.41 5.41a1.23 1.23 0 001.74 1.74l5.049-5.049 3.433.005h.02a13.84 13.84 0 007.734-2.353l1.244-.834a18.939 18.939 0 008.188 1.875h.027l3.035-.005 6.247 6.248a1.227 1.227 0 001.74 0 1.23 1.23 0 000-1.74l-6.608-6.61zM27.797 55.329a2.366 2.366 0 013.16-.163l.68.68-.796.796-2.536 2.536-.508-.508a2.365 2.365 0 010-3.34zM79.77 71.567a1.235 1.235 0 00-1.23 1.23 1.232 1.232 0 001.23 1.231c.323 0 .64-.131.87-.36.228-.23.36-.547.36-.87a1.24 1.24 0 00-.36-.87 1.235 1.235 0 00-.87-.36zm-5.378-5.887l.007-4.975a18.771 18.771 0 00-3.192-10.518L65.79 42.11a4.866 4.866 0 00-3.172-2.089 4.865 4.865 0 00-3.712.804 4.919 4.919 0 00-1.861 5.497l-3.216-3.216a1.23 1.23 0 00-1.74 1.74l6.908 6.908c.64.64 1.62.699 2.33.14a1.74 1.74 0 00.42-2.296l-2.117-3.491a2.448 2.448 0 01.688-3.266 2.424 2.424 0 011.848-.4 2.42 2.42 0 011.58 1.04l5.416 8.077a16.319 16.319 0 012.775 9.143l-.008 5.486c0 .327.13.64.36.872l3.3 3.3a1.227 1.227 0 001.74 0 1.23 1.23 0 000-1.74l-2.938-2.94z" fill="#53576A"/><path d="M50.068 42.314a1.237 1.237 0 001.23-1.23 1.236 1.236 0 00-1.23-1.23c-.324 0-.64.13-.87.36a1.24 1.24 0 00-.361.87c0 .325.131.64.36.87.23.229.547.36.871.36zm12.289 16.994a1.23 1.23 0 00-1.74-1.74l-.537.537a5.9 5.9 0 000 8.334 1.227 1.227 0 001.74 0c.48-.48.48-1.26 0-1.74a3.436 3.436 0 010-4.854l.537-.537z" fill="#53576A"/></g><g fill-rule="nonzero"><path d="M77.12 28.387a3.39 3.39 0 00-2.523 1.14 3.39 3.39 0 00-2.524-1.14c-1.918 0-3.473 1.631-3.473 3.644 0 2.818 5.997 7.508 5.997 7.508s5.997-4.69 5.997-7.508c0-2.013-1.555-3.644-3.474-3.644z" fill="#FEBBBB"/><path d="M77.12 26.948a4.75 4.75 0 00-2.523.734 4.75 4.75 0 00-2.524-.734c-2.69 0-4.88 2.28-4.88 5.082 0 1.588 1.117 3.496 3.414 5.831a36.068 36.068 0 003.136 2.82 1.383 1.383 0 001.708 0c.064-.05 1.59-1.247 3.136-2.82C80.884 35.526 82 33.618 82 32.031c0-2.803-2.19-5.083-4.88-5.083zm-2.524 10.75c-2.35-1.996-4.59-4.543-4.59-5.668 0-1.216.928-2.205 2.067-2.205.567 0 1.096.24 1.49.677.267.295.641.463 1.034.463.392 0 .767-.168 1.033-.463a1.99 1.99 0 011.49-.677c1.14 0 2.067.99 2.067 2.205 0 1.122-2.24 3.67-4.59 5.668z" fill="#53576A"/></g></g></svg>