<?xml version="1.0" encoding="UTF-8"?> <svg xmlns="http://www.w3.org/2000/svg" id="Layer_1" data-name="Layer 1" viewBox="0 0 500 500"><defs><style>.cls-1{fill:#281a39;}.cls-2{fill:#fff;}</style></defs><circle class="cls-1" cx="250" cy="250" r="230"></circle><path class="cls-2" d="M350.8,311.58c.22,1.43,5.32.49,4.82,2.54-.25,1-2.49.17-2.53.84s1.7.52,1.93,1c1,2.22-2.89,5.59-4.72,6.59-3.7,2-10.37.72-14.33.41a93.32,93.32,0,0,0-19.83.62c-8.09,1.07-8.5,5.74-10.7,13.29-3.64,12.55-9.58,23.79-13.86,36-2,5.69-3.49,11-7.87,15.38-3.92,3.91-5.47,7.28-8.59,11.69-.34-.34.69-7.33.6-7.14.32-.73,11.43-9.15,8.5-11.07-1.05-.7-4.59,9-6.78,7.62-1.22-.76,27.69-63.86,23.89-65.43-2.76-1.15-19.83,65.09-26.76,63.36,4.16-12.49,11.24-24.29,14.41-37.11.32-1.29.11-4.09,1.15-6.51a55.23,55.23,0,0,0,3-9.26c.71-2.88,1.07-4.86,2.61-7.56.63-1.1,2.67-1.29,2.55-2.05-.38-2.46-4.7,3.51-4.78,3.66-2.58,4.69-3.61,11.44-5.23,16.54-.25.79-1,3.71-2,7.18a16.75,16.75,0,0,1,1.17-1.66,51.28,51.28,0,0,1-4,11.15v-.24c-1.16,3.43-2.22,6-2.8,5.82-2.27-.61,7.28-26,8.28-28.89.77-2.23,4.8-10.65,3.45-12.24-2.15-2.53-4.83,9.63-5.11,10.51-3.68,11.25-7.71,22.37-11.33,33.65-.63,1.95-8.9,23.28-11.6,21.11,2,1.63,12.21-28.39,12.76-30,1.12-3.33,12.56-34.3,11-34.79-3.08-.95-16.78,52.37-22.18,56.87-.91-1.45,3.68-9.05,4.26-10.81,1.73-5.17,2.89-10.49,4.62-15.54.91-2.64,10.53-30.05,9.85-30.25-1.14-.35-12.21,34.73-13.34,38.25-1.85,5.76-3.4,11-6.38,16.37-3.11,5.56-6,6.72-7.61,12.8-1.9.07-1.09-3.33-3.51-2.09,7.36-9.65,9.71-19.11,12.83-30.74,1.68-6.25,3.45-12.48,5.52-18.62,1.44-4.29,5.24-10.82,5-15.51-3.42,1.51-5.35,7.82-6.67,11-2.7,6.45-5.75,12.48-7.11,19.43-1.31,6.7-1.41,12.78-4.27,19.13-2.11,4.69-7.7,10.86-7.82,16,1.46,2,2.63,3.91,4,5.86.76-.57.74-3.79,1.73-3.9,3.39-.4-.34,1.32,1.95,2.31.78-.67,1.42-.68,1.9,0-1.39,2.89,2.11,3.11,1,6-1,2.75-1.76-2.78-2.39-2.59-4.72,1.41-.05.32-4.46.27-1.91,0-.92,9.82-3,9.2-1-.3.85-6,.46-7-.69-1.79-2.26-1.89-3.59-3.17-3.67-3.56-7.85-4.22-6-9.48.78-2.27,4.13-5.34,5.23-7.79A51.33,51.33,0,0,0,251.38,370c1.35-8.21,2.58-15.8,5.15-23.79,1.18-3.66,7-17,3.71-19.18-.87-.58-8.65-.54-9.53.23-1.78,1.55-2.06,6.34-2.67,8.44-2.13,7.25-4.56,14.64-6.16,21.8l2.23-4.22c1.19,4.37-1.24,12.43-1.58,16.9a1.84,1.84,0,0,1,.16-.24c2.2-3.85,7.6-42.65,11.15-41.5C253.35,328.3,241,384,241,384c-.69-.18,1.38-11.5,1.56-13.66-.18.36-.5,1-1,1.85-1.29-1-.41-10.47.08-13.65-1.72,8.61-.89,17.84-3.49,26.22a1.74,1.74,0,0,1-.94-1.21,9.36,9.36,0,0,1-1.38,2.71c-.12.8-.53,10.56,2.07,8.11-1.26,1.19-.8-8.26-.13-6.14s1.94,4.47,2.89,6.87c.37.94,2.13,1.43,2.2,2.45,0,.39-1,1.59-1.35.6-.16-.49-1.6,0-1.5.6.2,1.24,1.54.76,1.8,1.84-.06-.23,3.88,7.89.8,7.56-.7-.08-5.31-12.27-8.93-10.45-1.67.84,1.73,8.67-.75,8.61-1.78,0,1.24-6.34-2.14-4.7-1.52.73-.42,5.1-1,6.83a4.94,4.94,0,0,1-1.65-1.4c-1.58.22-.29,2.32-1.53,2.5-.14-1.47,1.52-4.45,1.1-5.48-.91-2.25-2.31.84-3.6-.6-.59-.67,1.43-2.11.62-3.12a36.35,36.35,0,0,1-2.69-3.3c-1-2.07-1.85-4.47-3.56-5.32v0c-2.37,3.87,3.37,6.91,2.64,8.14-1.81,3.08-5.5-5.36-5.71-6.61-1-6,2-12.91,4.65-18.15-1.14,4.5-4.7,12.15-1.59,16.59-1.16-6.39,3.32-12,2.45-18,4.71-5.81,5.45-15.43,7.31-22.49,1-3.85,6.76-17.14,4.47-20.44S217,328.31,213.47,328c-8-.68-16.44-2-24.43-1.49-7.68.46-9.15,6.44-15.48,8-6,1.46-15-4-19.5-7.57-9.76-7.66-22.16-12.5-27-24.95-3.1-8,0-13.34,2.23-21.09,2.06-7.2,2.16-14.94,5.24-21.78,6.4-14.21,17.1-26.67,27.26-38.27,22.38-25.58,42-53.51,63.83-79.61,11.6-13.87,25-25.58,39.19-36.75,6.09-4.8,11.45-8.64,18.78-11.22,1.72-.6,20.79-6.56,15.15-1.19-2.09-2.79-20.38,7.21-23.47,9-8.06,4.56-16.12,10.48-22,17.73,2.39,1,16.33-13.06,19.09-14.71a124.62,124.62,0,0,1,13-6.46c2.39-1.08,13.47-6.58,13.28-4.12-3.75,2.52-8.85,7-11.23,11,2.64-1.76,4.86-5.87,7.79-7,4.65-1.85,2.77-.44,1.41,1.86-3.53,5.94-13,16.35-19.48,19.8.93-3.08,12.77-10,11.44-12.93-11,7.54-21.49,19.55-30.37,29.48-1.48,1.65-2.91,3.27-4.35,4.87a7.66,7.66,0,0,1,3.44-1.8c-1.12,2.67-3.69,4.29-5.55,6.36-3.5,3.91-7,7.9-11.15,11.12.26-1.17,1.89-3.61,4.06-6.3-4.31,3.74-10.65,8.69-12.26,13-4.55,1.34-9.57,7.86-13.31,11.43-5.89,5.62-11.65,11.6-17.2,17.57s-9.29,12.82-14.79,18.56c-.91,1-1.83,1.89-2.75,2.82a3.1,3.1,0,0,1,.61-.2,6.48,6.48,0,0,1-.57,1.69c5.62-7.36,11.44-14.07,17.74-21.09,4.3-4.8,8.9-9.31,13.52-13.8,3.69-3.58,8.33-10.62,13.56-11.64-6.85,11.64-20.54,20.78-29.49,31a316.32,316.32,0,0,0-25.21,32.87c-7.78,11.66-14.75,23.87-22.68,35.42-2.47,3.59-8,8.1-5.69,12.91,2,4.16,7.78,1.77,9.51,5.55-3.3-1.06-6.94-1-10.06-2.69-6.94-6.58,9.71-24.26,13.32-30,7.24-11.44,14-22.91,22-33.85l.41-.57c-.14.17-.27.35-.41.53-3.94,5.44-7.62,11.25-12.14,16.2.71-3.56,3.87-5.82,4.95-9.2,1.21-1.24,3-4.18,4.9-7a42.17,42.17,0,0,0-5,7.09c-7,7.39-11.32,17.9-16.65,26.47-3.25,5.25-6.44,10.64-9.68,15.94-.33.53-8.6,10-6.26,10.57,1,.25-.15-3,1.34-2.69,1.06.24.07,5.41,3.18,6.49a3.36,3.36,0,0,1-1.16,1.65,6.5,6.5,0,0,1,2,.63c2.19,1,7.33,2.58,9.21.41,5,.69,12.57,0,17.23,1.26-6.29,5.94-26.07-.12-33.67-.77,2.64,4.3,14.4,3.36,18.64,3.73,6.65.6,12.51-.37,19-1.38,15.85-2.46,33.94-1.11,50.05-1,17.42.14,34.69.43,52.1-.5,8.38-.45,17.31-1.91,25.7-1.25,8.66.68,16.63,3.62,25.48,3.22-7.33,2-14.22-.58-21.47-1.37-7.54-.83-15.16-.32-22.7.3-6.56.53-13.08,1.08-19.65,1.35a10.38,10.38,0,0,1,3,.76c-2.29,2.74-12.31.87-15.74.89q-10.83.08-21.67.12c-12.25.06-25.21-1.09-37.37.37,10.65,2,23.21.74,34.07.82,12.22.08,24.44,0,36.66-.34,10.58-.31,21-1.31,31.53-2.19,10.77-.92,22.14,7.08,32.67,4.19-1.36-.18-8.11,0-8.65-1.31,2.69-.5,20.17-1.74,20.67.42,1.19.73,7.39,9.74,6.2,9.86-.41.05-3.16-1.08-3.44-.47-1.44,3.1,9.35,4.54,9.5,6.06.13,1.34-3.37.3-3,2.79ZM374.27,278c-6.31,1.65-2,2.52-2.69,6.19-.13.72-1.49,2.2-1.49,2.3.16-2.48-2.56,7.79-.14,4.06-1.61,2.48-1.66,0-4.37,1.05-5.52,2.07-1,1,.14,3.66.5,1.18-3.33,1.49-3.81,1.32a73.25,73.25,0,0,1-6.69-4.9c-1.12-1.25-1-3.14-2.44-4.69-1-1.1-7.18-2.47-6.79-1.85,1.65,2.53,4.43,4.55,6.59,6.58,3.79,3.56,2.92,1.25,4.06,5.62.11.44,3.2,4.53-.09,2.31-1.83-1.23-2.16-4.87-4.47-5.28,0,1.73,4.81,9.93,4.48,10.23-1.19,1-7.91-8.15-8.67-9.4-.63-1-2.16-10.72-4.41-9.57-1.33.67,1.09,1.84.12,2.56s-1.59-1.91-2.36-.81,2.94,2.3,1.88,3.41-4.1-2.8-4.4-2.49a2,2,0,0,1-.91,2.1,7.09,7.09,0,0,1-2.21-2.12,4,4,0,0,0-3.61.27c-1.67-.23-3.76.22-6,.06-8.2-.58-15.72-3.53-24-3.56s-16.58.58-24.91.85c-7.57.26-18.06-1.34-25.13.35.51.11,2.61.14,2.81.94-3.52.62-35.8-.95-35.34-1.94.23-.49,18,1,20.56.81,8.29-.7,16.54-1.4,24.88-1.65,18.09-.54,35.35-2.54,53.4-.38,6.3.76,13.66,1,19.47.08.41-.06,2.39,2.25,3.2.29.94-2.3-5.71-1.89-6.87-1.87-3.33,0-45-4.07-44.86-1.82,0,.17,6.64.14,7.42.35-21.34,4.68-44.32-.87-65.86,1.78a5,5,0,0,1,2.53,1.61c-3.38.63-49-1.66-49.12-2.42-.53-2.88,29.07-1.13,32.34-1.07,11,.21,24,2.25,34.79.09-5.11-.89-57.79-3-57.9-2.23.56-3.54,19.46.94,19.59-.7.14-1.83-6.38.25-6.22-1.68.19-2.43,13.33.59,13.28-2,0,.4-36.27,2.52-36.26,2.68.09,1.45,4.47-1,4.55.92s-21.56,5.09-21.49,5.68c.19,1.59,6,.93,7.2,1.15-1.55.61-6.09,2-7.69,1.4-1.89-.69-1.27-3.45-2.3-3.8C159.8,281,152,284.92,152.24,278c.08-2.16,4.79-6.68,6.2-8.78,2.67-4,5.22-8,7.76-12.05,4.12-6.59,8.13-13.24,12.37-19.75,9-13.8,19.48-26.62,30.31-39C212,194.78,241,162.71,243.59,165c-.58-.5-26.89,26.79-29.27,29.41a369.92,369.92,0,0,0-29.24,36.47c-8.58,12.27-15.62,25.59-24.23,37.8-1.95,2.77-6.81,7.45-3.75,11.06,2.86,3.38,18.06.14,21.27-.79-4-1.5-8.38,1.93-12.7-.32,3.49-2.78,11.32,1.52,14.05-1.83-1.86-.58-7,1.69-7.21-.87,0-.44,3.57-4,4.27-4.86,7.69-8.95,13.18-20,19.64-29.82a338,338,0,0,1,41.93-51.63c14.81-15,30.13-28.24,43.4-44.68,3.21-4,41.64-47.27,41.55-47.34,1.25.88-2.69,5.2-1.86,4.52l-.06.08c-12.95,14.51-25.46,29.47-38.28,44.11-12.55,14.34-25.77,27.11-39.4,40.35s-25.6,28.23-36.57,43.6c-5.47,7.66-10.67,15.51-15.69,23.47-.84,1.34-12.75,18.88-12.65,19,2,2.38,4.71-3.66,5.24-4.39a6.32,6.32,0,0,0,.88-2.93c-.12-1.22.63-1.76,2.25-1.61,4.58-6.95,8.77-14.15,13.36-21.1a347.52,347.52,0,0,1,32.38-41.91c11.72-12.93,25.4-23.72,37.37-36.39,2.4-2.54,28.46-32.42,28.71-32.18,3.52,3.33-59.23,63.5-64.91,69.81-5.14,5.71-54.39,71.62-51.87,73a53.58,53.58,0,0,0,5.94-1.64c3.35-2.36,5.85-8.85,7.92-12.19,1.49-2.4,15.27-26,17.07-25.11,2.37,1.18-22.18,35.12-20.5,36.22.83.54,23.29-34.44,25.62-37.71,4.66-6.53,9.51-12.94,14.64-19.12,2.59-3.12,11-15.67,15.66-16.45,5-7.49,14.06-13.91,20-19.5,6.46-6.1,11.87-12.36,17.62-18.51-.61.52-1.1.94-1.38,1.23,1.3-3.86,4.28-6.66,7.31-9.2a1.63,1.63,0,0,1,.08.7c3.63-6.21,13.29-17.38,14.66-16.59a2.16,2.16,0,0,1-1,1.85q-7.5,9.12-15.05,18.21a2.31,2.31,0,0,1,.13-.9c-.08.1-.15.2-.24.3-.6,7.54-42.56,44.22-44.76,47.53.17-.5.37-1,.59-1.48-3.91,4.62-9,8.85-12.68,13.47-4.43,5.52-8.63,11.24-12.65,17-2.37,3.41-25.79,37.18-24.09,38.32-.5-.33,41.15-61.62,48.74-67.13-4.5,11.41-16.61,22.23-23.73,32.5-2.29,3.32-23.29,30.8-21.24,33.67,3.51,4.9,14.69-16.31,15.57-17.6,6.76-9.92,13.9-19.59,20.64-29.54-1,.94-2,1.82-2.77,2.67-2.72,3.12-4.59,7.24-7.86,9.87,3.77-6.59,8.1-13,14-17.9a4.77,4.77,0,0,1-.15.92,86.29,86.29,0,0,1,11-11.67c-1.11.89-2.24,1.73-3.4,2.49-1.22-5.34,19-20,22.58-23.59a363.73,363.73,0,0,0,24.81-28.52c1.35-1.68,2.68-3.76,5-4.11-4.05,4.92-14.45,14.39-14.28,20.73,9.69-9.93,18.73-22.06,27.59-33.23,2.61-3.3,12.67-22.32,15.38-22.46,2.19-.12-2.7,14.86-2.88,14.83-1.19-.2.69-3.22-.81-4-3.16-1.55-9.17,24.9-9.62,26.59-3.25,12.34-7.29,24.45-10.87,36.7-1.85,6.31-19.52,71.63-17,72.16,1.1.22,17.31-80.4,22.22-79.25v0c1.41-8.42,4.53-16.32,6.42-24.75.61-2.72,3.93-26.2,6.73-26.47,3.43-.33-3.91,23-4.29,24.54-2.87,12-5.56,24.12-8,36.23-4.59,23.19-14.38,46.18-16.11,69.88,3.38-1,8.2-34.11,9.4-38.58,3.62-13.4,6.08-29.39,12.64-41.68-2.78,14.78-7.64,29.18-11.27,43.76-1.68,6.72-3.28,13.46-4.85,20.21-1,4.26-4.51,11.23-2.31,15.33,3.54-13.87,6.24-28,9.7-41.89,3.42-13.73,8.56-27.61,10.92-41.53-.65.1-1.4,2-1.63,2.33-1-4.16,3-11.89,4-16.85,1.47-7.06,3-14.12,4.4-21.2s2.6-14.22,3.78-21.34c.21-1.25,2.55-14,2.69-13.92-1.22-.81-5.58,8-6.31,8.7.36-3.13,3.82-12,7-13,4-1.2,8.73,4.54,11,6.67,9.74,9,7.48,20.66,5.88,33.18a402.93,402.93,0,0,1-7.27,41.07c-3.23,13.73-8.92,27.62-10.89,41.57,2.89-.87,5.53-17.25,6.47-20.6,2.69-9.58,5.15-19.22,7.14-29,3.57-17.41,8.15-36.9,6.23-54.74,5.83,3.09,4.15,18.46,3.43,23.58-.39,2.82-1.46,5.92-1.58,8.78-.17,4.23,1.55,8,1.12,12.24-.82,8.17-5.61,16.95-7.71,25-2.45,9.43-5.07,18.77-8,28.07s-6,18.73-8.6,28.24c-.68,2.52-3.19,8.87-2.83,11.47.64,4.5,1.06,3.32,6,4.3,7.93,1.58,15.5,4.24,23.57,5,3.82.37,17.28,1.93,17.28,7.64ZM170.15,302.62c0-.23-9.36-3.88-10.16-4.91C157.08,298.6,169.89,303.86,170.15,302.62Zm108-162.91a1,1,0,0,1,.48-1.59c2.5-3.13,5.16-6.4,7.81-9.45-11.07,11.4-21.6,23.29-33,34.44-12.78,12.55-26.07,24.4-37.83,38a369.27,369.27,0,0,0-32.22,43.44c-4.24,6.64-7.93,13.71-12.49,20.13-1.58,2.21-7.52,6.85-8,9.27-.09.49.28,4.2,1.58,4.86-10,1.22.44-10.63,2.12-13.14,5.2-7.78,9.58-16.07,14.54-24,2.31-3.7,29-42.23,30.76-40.69-.06-.06-30.1,40.25-31.9,45.4,1.57.46,20.2-28.48,22.6-31.54a368.5,368.5,0,0,1,28.21-31.93c10.47-10.58,22-20.05,32.15-31,10-10.74,19.63-21.67,30.06-32,.8.49.81,1.17,0,2q-2.22,2.17-4.38,4.38c2-1.78,5.86-5,5.8-4.68-.51,2.6-16.39,18.08-16.4,18.07Zm-107,169.37c-.49-1.66-8.76-1.72-10.12-1.36,2.66.71,5.45,1.09,8.15,1.58Zm-8.39-81.58c1.94-3.28,26.65-29.95,25-31.65C188.39,196.57,159.85,225.21,162.71,227.5Zm.72,30.12c-.5-.7,3.88-6.78,3.94-6.87C167.88,250,164.64,259.31,163.43,257.62Zm2.24,21a1.08,1.08,0,0,1-1.17.19c.36-.05.75-.11,1.17-.19Zm82.67-108.12c-7,7-40.54,44.21-44,48.8s-35.26,54.85-37.66,53.5c.5.28,31.42-47.19,34.68-51.51a326.16,326.16,0,0,1,47-50.79ZM191,244.14c.28,3.56-14.45,22.57-14.79,22.25C175.48,265.72,189.19,245.43,191,244.14Zm-5.62,46.4c2.3.23,4.63.13,6.94.13,0-.2,5.75-.23,6.61-.33A36.77,36.77,0,0,0,185.36,290.54Zm56-93.12c.68,3-11.9,14.1-14.17,16.87-5.3,6.42-10.31,13.07-15.1,19.87-1.86,2.64-25.39,38.65-25.77,38.37C182.88,269.91,233.45,201.86,241.36,197.42ZM349.73,314.17c.35-1.19-5.24-3.29-5.57-3.39-2.35,4.25-13.18,1-17,.71-7.06-.53-14.22-1.25-21.31-1.1-13.86.29-27.6,2.78-41.49,3-14.77.19-29.61-.27-44.33-1.45-11.05-.9-22.08-3.15-32.9-1.44,20,2,40.31,2.7,60.42,3.36a286.78,286.78,0,0,0,29.32-.52c3.48-.24,26.07-4.42,27.61-1.54-17.26,4.58-37.12,3.78-54.82,3.83q-14,0-28-.45c-6.4-.23-18-3.26-23.77-.19,11.79,3.05,27.08,1.71,39.25,1.69,13.77,0,27.59,0,41.34-.84s27-4.15,40.76-2.4a114.42,114.42,0,0,0,17.55,1.28c1,0,13-.85,12.91-.52ZM188.58,287.11c.59-3.62,25.48-1,28.44-.1l-1.27.28C213.05,287.31,188.63,286.77,188.58,287.11Zm9,17.9c3.69,1.3,8.14,1.32,12,1.83,0-.19,3.42-.21,4-.31C209.48,305,202,304.59,197.61,305Zm1.64-6.59c22.81,1.55,46.61,3.08,69.46,2.4,5.13.76,11.62-.76,16.61-1.86-2.62,0-21.53,2.27-21.61-.22,0-1.26,11.63-1.58,12.59-1.69-13-.37-26,1.05-39,1.05C224.81,298.1,211.66,297,199.25,298.42Zm12.62-7.95c0,.76,8.14.26,9.21-.11-.84-.33-18.14-1.54-18.22-.44C202.77,291.25,211.14,290.47,211.87,290.47Zm10.82-49a11,11,0,0,1-2.2,4.39c-1.25,2.19-14.25,23.21-15.12,22.76C204.09,267.93,220.93,243.67,222.69,241.44Zm-10,20.39c-1.37,2.18-7,9.52-.94,6.12,2.38,2.13,10.64-.19,13.54-.3,6.3-.25,12.59-.52,18.89-.75,6.93-.24,7.52,1.05,10.53-3.95,2.66-4.43,3.23-9.09,4.46-13.93,2.33-9.23,4.7-18.65,7.5-27.54,1-3,11-27.72,8-29.25-1.2-.63-2.95.13-4.89,1.56a92,92,0,0,0,8.6-8.14c3-3.23,3.69-7.08,6.21-10l.3-.3c-3.27,3.25-7.1,7-10.86,10.31.39,2.2-9.43,9-8.71,10,.52.69,2,0,3.79-1.37-4.51,3.57-9.82,10.2-11.89,11.44-.71,1.66-5.33,7.68-7.41,5.37-9.73,9.55-17.79,21-25.33,32.28-4.06,6.07-8,12.24-11.83,18.43Zm-.91,6.08c-1.19-2,13.87-21.7,14.45-21.43C227.46,247.06,213.56,266.09,211.77,267.91ZM227.46,271l-6.32-.33c-1.59.11-8.85-.66-9.43,1.59C216.81,272.4,222.33,271.24,227.46,271ZM217.71,167.5c3.56,1.61,29.57-29.47,32.84-33C247.74,131,218.56,167.89,217.71,167.5Zm5,208c-1.62,2.41-1.75,6-2.35,8.86,0,.44,1.1,7.36,2.07,7.11C221.11,391.79,222.84,375.71,222.75,375.47Zm-2-171.37c-.31-4,29.9-31.71,30.21-31.38.8.84-25.75,27.6-28.36,30.54C222.08,204.8,221.46,205.08,220.78,204.1Zm1.71,187.33h0Zm0,0h0Zm22.12-114.58c0-.9-21.78-1.53-21.67-.12.08,1.06,10,.48,10.85.48C233.8,277.05,244.6,278,244.62,276.85ZM224.25,187c-.55-.5,11.79-12.62,12.41-13C237.56,176,224.87,187.53,224.25,187Zm22.56,86.69A67.34,67.34,0,0,0,226,274a3.39,3.39,0,0,0,2.11.44C234.32,273.73,240.56,274,246.81,273.65ZM230.49,394.76c-1.28-1.74-.79-4.63-2.45-5.94,0,.93.68,11.18.06,11C229.06,400.08,230.42,394.83,230.49,394.76Zm9.6-230.45c.84.37-9.08,8.86-9.65,9.42C230.25,173.92,238,163.38,240.09,164.31Zm-3.85,106.86c.44,0,5.79.42,5.79-.47,0-.54-9.94-.56-10.9,0a18.82,18.82,0,0,0,5.13.43Zm9.13,56.31c-1.3-.4-9.06,27.93-9.66,30.71-2.28,10.68-.24,21.16-2.62,31.81,1.35-.44,1.95-2.66,2.71-3.73-.11-10.29-.93-20.52,1.63-30.6C238.18,352.68,246.62,327.85,245.37,327.48Zm-7.32,46c.95-5.22,1.93-10.53.1-11.76-.66,3.22-.26,7.51-.1,11.76Zm10.15-18c.23,2.38-4.72,34.24-7,32.53C242.38,388.83,247,357.14,248.2,355.42Zm-6.91-152.79c-1.07-1.17,28.46-28.92,31.16-31.92,5.37-6,10.38-12.23,15.48-18.42,1.29-1.56,10.32-14.78,12.53-14.38.36.07-10.58,14.74-11.84,16.31-4.88,6.05-9.87,12-15.18,17.7C271,174.5,241.59,203,241.29,202.63Zm28.22,131.76c1.41-4.51,2.05-11-4.31-5.71-3.79,3.14-5.58,15.78-7.11,20.89-2.39,8-3.14,16-4.92,24.11a45.46,45.46,0,0,1-3.44,9.74c-.91,1.94-5.2,7.15-5.29,8.9s7.6,6.42,8.4,5.6c.55-.56-2.68-3.21-1.71-5-4.13-2.69,4.6-10.82,5.92-14.57,2.67-7.57,3.83-16,5.84-23.72,1.85-7.11,4.45-13.34,6.62-20.27Zm-23.6-130.25-.08.23S245.83,204.26,245.91,204.14ZM265.21,279c-5-1-13.13-1.67-18.15-.63.54,1.78,8.07.63,9.32.63C256.38,279.76,264.15,279.3,265.21,279ZM247.3,294.37c7.32,1,18.94,1.49,26-.8-4.15-.66-8.66-.2-12.86-.2C260.43,294.69,249.43,294,247.3,294.37Zm.12-3.92c3.24.28,8.44-.56,13.2-.86C256,289.33,248.55,288.91,247.42,290.45Zm.66,75.66c-.4-2.7.47-5.87.89-8.51C249.32,355.31,248.73,364.2,248.08,366.11Zm.27-195.63c.77-.77,1.23-1.17,1.29-1.11l-1.3,1.11Zm6.92,13.61c1,.54-5.57,5.93-5.93,6.26C247.19,192.37,253.53,183.14,255.27,184.09Zm4.46,144.49c.48,6.25-3.69,14.47-5.46,20.43-2,6.62-3.16,13.32-4.76,20C246.78,366.52,257.22,328.9,259.73,328.58Zm-9.62-158.71c-1.13-1.24,17.47-18.2,17.84-17C262.54,158.64,256.12,164.41,250.11,169.87Zm.42,40.58-.3.3a40.9,40.9,0,0,1,7-5c.31-1.1,4.64-5.41,4.1-6C260.54,198.87,251.07,209.67,250.53,210.45ZM251.62,171c-.92-1.11,15.14-15.81,16.33-18.12.23-.21,4.06-4.56,4.94-3.75,1.21,1.11-5.37,7.12-6.42,7.78C265.23,158.27,252.89,172.55,251.62,171Zm2.73,167.51a21.22,21.22,0,0,1-2.17,4.5c-.21-1.8,2.38-13.74,3.93-13.92C258.15,328.89,254.44,338.06,254.35,338.54Zm21.59-209c.24,0-21.74,28.25-23.31,26.64C251.74,155.23,274.47,132.11,275.94,129.5ZM258.73,356.83c-1.74,7.06-1,18.37-5.6,24.39-.95-4.39,8.18-47.18,11.62-46.65C265.93,334.76,259.25,354.73,258.73,356.83Zm4.42,32.88c2,.34-1.69,6.82-2.35,7.48C260.49,396.9,261.93,389.51,263.15,389.71Zm2.69-46.6c0,1.24-4,14.54-5,14.5C260.25,357.58,264.82,344.36,265.84,343.11ZM271,388.78c-.64.92-5.63,8.54-4.85,8.6-5.32-.38,2.56-8.24,3.75-10.07.79-1.22,6.26-13.85,7.65-13.76C279.8,373.7,271.63,387.83,271,388.78Zm5.4-113.8c-3.8-.06-7.59-.06-11.39,0h11.39ZM265.86,136c-1.72,1.79,1.34-2.63,2.46-4.23a31.35,31.35,0,0,1,7.91-7.08C276,127.92,268,133.8,265.86,136Zm1.19,127.9c.57.15,9.16-34.75,8.86-38.18,1.92-4.64,14.51-53.9,16.1-53.74C286,171.44,266.74,263.87,267.05,263.94Zm1.27-132.13c-.21.26-.4.51-.58.76C269,130.91,268.87,131,268.32,131.81Zm1.5,62-.67.52C269.37,194.13,269.6,194,269.82,193.79Zm3.3,58.35c-.16-1.6-2.79,9.28-2.86,11.35C272.05,260.19,272.34,255.79,273.12,252.14Zm-2.53-103.51c-1.44-1.29,4.87-6.41,5.49-6.67C276.45,143,271.12,149.11,270.59,148.63Zm.11,153a13.91,13.91,0,0,0,5,.28c1.06.1,10.49-.34,10.36-1.2C286,300.42,271.62,301.32,270.7,301.64ZM295,173.3c-2.34,10-5.55,19.59-8.31,29.46s-5.32,20.14-7.84,30.15c-1.32,5.26-2.07,10.65-3.05,16-.55,2.93-3.84,12.08-2.79,14.54,1.36,3.19,2.5-.78,3.23-2.19,2.31-4.45,2.58-11.49,3.55-16.34,2-10.15,4.44-20.13,7.25-30.08,5.51-19.53,11.61-38.47,16.81-58C303.12,154.89,295.47,171.31,295,173.3Zm-9.87-52.78c-1.6,1.72-7,9-9.18,9,1.23-2.89,3.69-5,6.05-7C282.77,121.88,287.24,118.26,285.13,120.52Zm.64,169.2a60.33,60.33,0,0,1-6.83,1c0-.06-2.41-.35-2.69-.42C277.42,290,285.34,288.52,285.77,289.72ZM284.22,125.5c.14,2.09-5.13,6.79-6.77,7.75-2.09,1.23.72-2.14.72-2.15C279.21,129.34,282.34,126.11,284.22,125.5ZM287,239.89c0,2.48-4.89,24.37-3.88,24.68-.83-.25,11.18-44.11,20.23-77.7-1.11,3.49-2.64,7.18-3.11,8.94-1.49,5.63-2.17,13.28-5.27,18.22-.43-5.54,2.56-12.35,4.07-17.69s2.6-11.88,5.24-16.8a6.36,6.36,0,0,1,0,3.8c4.46-16.57,8-30,8.65-33.46-.26.25-1.52,2-2.19,1.43-.45-.36,4.7-8.25,4.8-9.44-10.15,4.7-10.62,16.32-12.42,25.5-1.6,8.15-3.81,13.31-6.8,20.36-4.7,11-6.38,23.94-9.75,35.56-3.82,13.16-6.27,26.7-9.1,40.11a.94.94,0,0,0,.14,1.43c.69.25,15.17-71.9,20.75-76.4.32,7.15-22.25,75.06-18.06,76.44,2.12.7,4.16-23.82,6.68-25Zm18.88,83.34c-4.34-1.22-9.66,21.85-10.9,25.31-.91,2.52-11.65,27.47-8.39,28.73,5-9.94,7.84-22.12,11.54-32.7,2-5.69,2.91-12.78,5.65-18.09C304.41,325.3,307.74,323.75,305.89,323.23Zm-16.54-30.86c5.11.69,12.23.15,17.31-.64a31.75,31.75,0,0,0-5.77-.27A55.83,55.83,0,0,0,289.35,292.37ZM346.68,316c.4,1.42-26.51,0-28.84-.13-9.19-.06-18.69,1.68-27.72,3.31,4.12,1.26,9.66-.89,13.82-1.4a116.49,116.49,0,0,1,16.8-1C322.88,316.8,347.72,319.73,346.68,316ZM293.52,254.4c.86-4.34,1.81-8.68,2.8-13,4.23-18.52,10.49-36.8,13.67-55.54-7.89,18.52-11.64,40.52-16,60.12-1,4.57-3.51,10.89-3.21,15.55,0,.16-1.24,6.46,1.75,3.36.1-.11.77-9.43,1-10.49Zm13.82,34.54c-3.91,1.13-11.76.67-15.9.15a1.07,1.07,0,0,1,1.13-.46A34.07,34.07,0,0,1,307.34,288.94Zm21.59,13.24c-1.22,0,6.14.61,6.29-.39s-43-6-42.5-1.7C292.59,299.06,326,302.19,328.93,302.18ZM313.85,94c-1.5-.91-5.29-2.33-5.29-2.39.05-3.44,9.93,1.21,5.76,2.74a1.88,1.88,0,0,0-.32-.25c.62,2.49-18.91,27.86-20.91,25.82,3.68-4.31,7.77-8.27,11.22-12.76,2.51-3.28,5.4-11.82,9.54-13.16Zm-17.23,15.15c.33.19,7.14-13.1,8.68-12.57S298.3,110.08,296.62,109.11Zm5.12,231.08c0-1.58-3.42,7.31-3.37,9C300.19,346.92,300.81,343,301.74,340.19Zm39.65-63.52c-3.18-.46-6.69.74-10,.43-8.11-.78-15.82-3.64-24.07-3.36-.7,0-8.65-.14-8.7.73,0-.43,22.74,1.93,24.49,2.24A82.4,82.4,0,0,0,336,278.39c1.89.05,3.86-.54,5.72-.09,1.39.34,3.22,2.2,4.46,2.25C348.82,280.67,342.55,276.83,341.39,276.67ZM305.9,91.09c-3.32,2.66-4.81,5.89-7.21,2.31C299.84,92,304,90.86,305.9,91.09Zm7.39,10.33c-2,.18-6.49,10.14-9.41,11.57C303.84,110.72,310.92,101.63,313.29,101.42Zm-6.61,163.84c6-.15,5.62-21.93,7-26.73C317,226.66,320.9,216,323,203.84c2.1-12.34,6.4-24.54,9-36.81,2.57-12,7.63-26.71,7.22-39-2.69.35-6.7,26.57-7.49,29.66-3.3,12.89-5.64,26-8.69,39-3.11,13.17-6.72,26.19-10.34,39.23C312,238.41,305.37,265.39,306.68,265.26Zm22.15,16.4c-4.31-1.58-12.46-3.56-16.94-2.7,4.62,1.67,10.18,2,15,2.87ZM312,264.9c1.51.06,7.16-25.93,7.06-28.63-1.7.4-2.86,10.81-3.16,12.16C315.24,250.12,312,264.9,312,264.9Zm1.63-21.51c2.33-3.42,4.17-12,4.17-16.17C316,230.83,313,239.4,313.65,243.39Zm7.76-126.62c-1.17,2.69-3.47,6.48-6.09,8C314.54,123.33,320.36,117.49,321.41,116.77ZM317,254.56c2.79-.69,7.41-28.18,8.05-31.67-.1-.57-3,9.89-3.41,11.6C320.06,240.66,316.85,248.18,317,254.56Zm17.17,51.55c-.73,3.47-14.55.77-16.91,1.14,2,1.09,22.32,2.68,22.31.15,0-1.6-4.76-1.21-5.4-1.29Zm-11.39-204c.8,1.38-4.63,8-5.47,8.43.69-2.82,2.7-5.63,4.1-8.21.06.11.52,0,1.38-.22ZM318.17,118c-1.08-.47,4.44-7,4.87-7.09C323.14,111.92,319.11,118.37,318.17,118Zm-.11,13.21c1-3.82,4-6.3,6.07-9.39C323.28,125.67,320.77,128.48,318.06,131.17Zm17.47,154.89c0,.61-16.95-.48-17.46-.41a24.28,24.28,0,0,0,10.87,1.76C329.88,287.43,335.58,287.25,335.53,286.06Zm-12-140.2a1,1,0,0,1,.36,1.4c-1.38,8.65-3.08,17.25-5.16,25.76C316.56,170.78,322.45,145.59,323.57,145.86ZM334,212.28c-2.36.28-6,20.73-6.71,23.25-2.49,8.44-4.9,18.45-8.45,26.45.22,4.39,1.86,1,2.83-1.1,2.11-4.51,2.58-11,3.84-15.86C328.17,234.71,333.47,222.88,334,212.28ZM320.41,296.7c0,2.14,13.3-.15,14.13-.29a.9.9,0,0,0,1.23.31C336.31,294.73,320.41,296.61,320.41,296.7Zm.95-194.4s0-.06,0-.11l.1-.1c0,.06-.07.13-.11.2Zm.11-.22,0,0,.05,0Zm0,0Zm0,14.74c.74-1.23,4.89-15.4,7.1-13.8C331.05,104.84,323,115.52,321.47,116.82Zm12.59,189.24c-1-1.72-9.32-.39-11.68-.43,4,.76,7.68.32,11.68.43Zm-3.38-73.2c-.79-.13-7.23,27.14-7.81,29.41a1.28,1.28,0,0,0,.69,1.88C324.67,264.16,332,233.07,330.68,232.86Zm-1.81-28.19c1.81-.62,4-18.44,4.89-18.17-1.74-.53-5.21,14.91-5.59,15.93Zm6.53,105.77c2.57.86,6.05.34,8.7.29C342.55,309.09,336.84,308.76,335.4,310.44Zm6-17.05c-.94.36-5.71-.54-5.85.39,0,.13,7.21,4.46,5.85-.38ZM336.75,109c1.45-.61,2.9,15,3.83,11.34C340.34,119.05,339.1,108.06,336.75,109Zm3.79,79.18c-1.87,1.56-3.74,9.31-3.39,11.92C338.5,197.72,340.77,191.17,340.54,188.22Zm.08-2.87c2.55-.11,8.62-34.19,6.61-38.45-3.05,10.9-1.29,27.19-7.79,36.83.11-.72,1.48-9.4,1.21-9.41C339.59,174.26,337.13,185.5,340.62,185.35ZM343,161.81c.67.07,1.84-10.05,1.82-10.94.33-1.58,3-16.35.75-16.2C345.92,134.64,343.9,161.9,343,161.81Zm5.57-34.23c.08-.52.15-1,.22-1.56a88,88,0,0,0-2.55-9.34C345.84,116.68,347.75,127.13,348.53,127.58Zm.69,3.23c-.79,3.68-2.05,9.07-1.32,12.84,1.87-2.68,1.79-7.05,1.82-10.19C349.58,132.56,349.41,131.71,349.22,130.81Z"></path></svg> 