<?xml version="1.0" encoding="UTF-8"?> <svg xmlns="http://www.w3.org/2000/svg" id="Layer_1" data-name="Layer 1" viewBox="0 0 500 500"><defs><style>.cls-1{fill:#281a39;}.cls-2{fill:#fff;}</style></defs><circle class="cls-1" cx="250" cy="250" r="230"></circle><path class="cls-2" d="M174.42,390.55c-.43.57-.83,1.15-1.2,1.75-.65.13-1-4-.2-4.53,1.77-1.07,4.15,4.59,3.82,5.75C175.86,394.37,175.1,390.32,174.42,390.55Zm37.61-5c.13,2.36,2.23,5.3,2.54,7.87.21,1.65-.62,10.1-4,5.27-.45-.64-.08-4.18.09-7.42a.69.69,0,0,1-.59.42c-2.43.31-4.52-14-5.37-13.92-3,.3-3.12,8.42-2.87,10.48.56,4.67,4.12,8.09,5.47,12.21.21.64-4.25-.27-4.6-.45-2-1,.64-3-2.66-3.44-3.69-.51,2.72,5.67,2.44,6.11-1.29,2-2.55-1.51-3.61-1.12s-.78,1.65-1.69,1.63c-2,0-2.56.27-2.64.52a14,14,0,0,0-2.24-1.93c-2.12-1.58-3.92-3.05-4.83-5.57-.84-2.3,1.42-10.66-3-10.47.06,0,2.24,18.14,2,18.24-1.82.79-5.06-15.21-5.16-14.87-.18.62-4,8.3-5.17,6.58-.35-.52.65-1.85.79-2.13,4.92-3,1.48-7.87.93-11-1.3-7.29,4.13-18.12,6.12-24.94,1.4-4.78,11.42-43.49,15.59-42.17a322.1,322.1,0,0,0-13.17,38.8c-1.55,5.74-3.63,11.37-5.09,17.12-.43,1.68-1.49,13.05-.46,13.42,2.51.91.76-7.09.83-8,.46-5.57,3.48-11.24,5.12-16.49,3.93-12.5,6.59-25.06,11.15-37.41,9.23-25,17.68-50.65,28.7-74.92q2.25-5,4.35-10c-3.8,8-7.89,15.86-11.17,24.19-6.55,16.58-11.84,35.07-20.14,50.78,3.67-18.93,13.13-39.42,21.33-56.84,4.39-9.34,9.24-18.52,12.78-28.22.51-1.39,5.89-18.6,7.13-17.82.32.2-.76,4.12-1.41,6.39,4.25-11.15,8.39-22.34,13-33.42,4.81-11.57,9.77-23.06,14.34-34.71,2.43-6.2,4.81-12.43,7.27-18.62.66-1.64,6.91-13.22,5.85-15-6.74,9.88-9.63,22.83-15,33.52a366.88,366.88,0,0,0-16,37.28c-8.21,22.15-16.34,44.16-26.92,65.33-12.1,24.23-20.2,50.27-29.54,75.63-2.05,5.57-4.64,11-6.27,16.74-1.51,5.29-1.62,10.89-3.32,16.11-1.77,5.43-4.15,10.74-6,16.18-.64,1.9-2.44,4.91-2.43,6.84,0,2.1,2.29,4.3,1.74,5.89-.42,1.22-2.88-3.78-3-4.28-.76-3.91,2.46-10.24,3.85-14,3.56-9.52,5.08-19.14,8.26-28.63,7.23-21.62,15.34-43.34,23.67-64.58,8.1-20.63,18.86-39.89,26.16-60.88,3.77-10.81,8.1-21.42,11.64-32.29,1.11-3.39,5.18-11.47,3.8-14.69-1.8-4.22-4.29-.62-6.15-1.48-1.29-.6,2.33-4.45.5-5.35-1.12-.55-1,2-1.19,2.35-1.38,2.45-1.35-7.21-1.42-6.47.24-2.83,1.26-7.19.64-10.06-1.87.62-8.28,10.08-8.73,9.83-.95-.52,2.64-8.29,2.58-9-.12-1.42-2.95-1.39-3.25-2.93-.37-1.91,2.17-5.87,3-7.28,5.81-9.51,17.33-16.22,26.58-22,5.85-3.64,12.24-6.87,17.43-11.47,1.94-1.72,7.16-10.34,8.64-4,.45,1.93-1.77,3.11-2,4.76,0,.19.81.52,1.43,1.06a18.4,18.4,0,0,1,1-4.24c.64-1.6,3.89-6.71,5.79-6.79,1.42-.06.76,3.35,2,3.45.47,0,3.07-3.15,5.76-2.07s2,2.46,2.89,4.89c.77,2,1.66,1.78,1.72,4.06.1,3.87-2.12,9.72-2.95,13.62-3.36,15.81-9.09,31.39-14.21,46.71-2.8,8.37-4.44,16.4-7.83,24.69-3.25,7.93-6.22,15.93-9,24-5.63,16.17-13,31.63-18.48,47.86-10.7,31.8-19,64.51-30.06,96.2-2.15,6.19-3.92,12.44-8.09,17.5-2.15,2.62-5.4,4.7-5.18,8.59Zm-27.29-7.36c-.54-3.54,3.13-10.91,4-13.63,4.1-12.25,7.15-24.73,11.61-36.85,1.79-4.9,23.69-61.6,21.46-62.61C223.74,265.93,180.36,363.42,184.74,378.17Zm.2.73c-.6,11.39,5,.07,3.88,0-2.27-.19-.82,4.19-3.62.49a2.28,2.28,0,0,1-.26-.46Zm16.36-7.11c4-14.52,8.08-29.51,12.9-43.78,2.5-7.38,25.61-80.29,28.86-79.5,2.68.65-2.06,8-.7,8.4-.18-.05,12.18-30.5,12.84-33.62-3.21.61-8.44,25.27-11.47,24.11-.57-.21,46.44-120.22,49.17-131.57-3.55.88-9.75,25.64-11.27,29.62q-6.76,17.73-13.69,35.4c-9.5,24.16-19.48,48.11-29.41,72.09-9.48,22.91-16.39,46.74-24.71,70.07-3.88,10.84-6.21,22-9.63,32.93-1.92,6.12-3.78,12-5.17,18.3-.69,3.09-.76,11.77-5.54,8.52,2.14-.08,7.83-26.4,8.87-30.17,3.21-11.67,6.2-23.21,10.5-34.53,4.23-11.14,7.47-22.56,11.19-33.87s9-22.06,13.43-33.23c8-20.36,16.15-40.57,24.65-60.73,2.11-5,21.43-60.42,21.41-60.43-2.38-.56-4.51,15.49-7.31,16.51.42-2,6.52-15.75,5.22-17.35-3.73,5.93-6.44,13.32-8.9,19.85,1.18,3.53-3.66,10.49-5,13.75-2.66,6.29-5.16,12.64-7.69,19-5.06,12.71-10.08,25.44-15.19,38.13C240.07,231,234.36,241.84,230,253.18c-2,5.22-2.76,10.75-4.78,15.94-1.24,3.17-4.29,7.55-5.12,10.22-4.72,15.11-7.72,33-13.1,49.63-3.83,11.82-7.19,24.21-10.16,36.28-1.43,5.8-2.8,12.32-3.83,17.8-.1.53-.55,8.84-.29,8.72-2.29,1-2.56-6.61-3.13-6.57-2.09.15-.49,7.27-.22,7.69.61,1,2.41.55,2.39.52-1.45-1.93,3.34,2.54,1.75,1.27.94.75,2.18,3.87,3.43,5.05.57-.79.66-7.9.9-9.25,1.12-6.32,1.74-12.45,3.45-18.69Zm-8.52-.89c.19.06,5.37-21.48,5.86-23.4a153.76,153.76,0,0,1,4.17-15.3c1.15-3.23,5.63-10.54,3.53-13.74-3.26,13-7.64,26.15-11.94,38.79-1.31,3.86-5.94,13.44-5,17.64.44,2,1.49-.93,1.34-.67,1.24-2.19,2.73-9.44,2.86-12.16a3.62,3.62,0,0,1,1.41-1.39C195,362.14,191.57,370.51,192.78,370.9Zm26.49-47.28c.21.09-13.74,43.4-14.92,47.13a5,5,0,0,0,.17,1.49C206.36,372.59,220.11,324,219.27,323.62Zm-12.79,59.12c.73,2.72,4.81-10.48,5.29-12.16,4.09-14.4,10.6-28.41,14.27-42.84-.79,0-2.18,3.23-2.22,3.29-1.71-2.49,6.09-16,7.23-19.36,3-8.81,5.57-17.8,8.25-26.7,1-3.22,13.45-44.85,16-43.68.58.27-5.39,15.54-5.62,17.43,1.85-.37,5.29-12.43,6-14.17,2.51-6.2,5.09-12.38,7.52-18.61a132.1,132.1,0,0,0,5.42-16.35c1.38-5.64,1.72-5.41-1.42-4.64,1.34,1.4-6.69,20.35-7.77,22.06-.62-5.46,4.85-17.27,7.71-22.1l.05,0c.77-7.87,6.22-17,8.94-24.52,3.42-9.43,6.71-18.9,10-28.36,3.16-9,5.71-18.34,9.3-27.17,1.61-4,6.33-12,3.3-16-6.84,13.34-10.3,29.51-15.18,43.7-5,14.48-10.46,28.86-15.25,43.38-9.46,28.66-23.7,55.72-32,84.65-8.44,29.4-19.68,58.1-27.38,87.67-.77,2.93-3.21,11.7-2.47,14.42Zm3,2.92c-.47.2.87,2.76,1.15,4.48.09-2.74-.06-4.95-1.15-4.48Zm14-41.09c-.54,1.51-12.18,30.74-10.18,31.21C214.44,376.05,222.5,347.68,223.47,344.57Zm3.86-77.36c-.53-.06-9.69,34-12.94,36.71C212.66,302.69,226.14,267.07,227.33,267.21Zm-8.77,123.94c.68,1.58,2.7,4.72,2.1,6.5-1.47-.81-4.27-5-4.57-6.63C216,390.49,218.32,390.58,218.56,391.15ZM281.5,260.42c.88,5.14-4.11,10.94-4,16.31a40.2,40.2,0,0,0,4.69-9.74c-1.39,5-2.72,9.95-4,14.9-7.46,29.11-12.08,58.54-22.42,86.94-2.32,6.37-9.28,33-18.56,31.13-4.45-.91-3.51-6.13-7.36-7.45-2.5-.86-.8,2.48-2,2.64-.41.05-2.36-1-3.21-1.26,1,.91,1.34,9.4-.45,6.87-2-2.89-.58-7.74-1.69-10.11-.43-.92-6.74-4.28-4.75-6.54.47-.54,2.28,2.45,2.47,2.14-.31.52,1.61-1.41,1.8-1.59,1-.88.42-3.13,1.05-4.36.93-1.8,2.78-2.78,3.8-4.55,5.86-10.2,8.08-24.24,11.58-35.42,7.55-24.15,14.28-48.67,22.16-72.68,7.63-23.24,15.93-46.86,25.21-69.49,1.74-4.27,19.37-50.21,17.46-50.87-.27-.09-41.27,106.84-44.93,117.1-7,19.52-12.48,39.52-19,59.16-1.59,4.79-17.24,58.11-21.23,55.66,2.18,1.34,17.74-47.83,19-51.55,7.42-22.32,13.91-44.83,20.72-67.33,2.82-9.3,7.35-17.84,10.9-26.86,3.87-9.82,6.79-19.93,10.77-29.7,3.88-9.54,7.62-19.09,11-28.81s9.74-21.08,11-31.16c-.83.47-1.91,4-2.54,4.82-1.55-1.46,5.76-21.58,6.9-24-.23,2.52-3.84,17.87-2.58,19.83,2,3.16,1.9-5.12,1.62-4a47.34,47.34,0,0,1,1.71-6.61,50.38,50.38,0,0,0,3.64-14.13c.27-2.82-.67-7.07-1-10.59,0,4.91-1.51,17-2.27,18.48-.32-.24-.87-2.59-1.08-2.94-.2-1.68,2.74-17.59,3-17.59s.21.17.27.48a9.12,9.12,0,0,1,.25-2.84c.74-2.48-.5-3.38,3.49-2.07,3.16,1,5.57,6,7.08,8.62,5.24,9,3.87,18.66,1.28,28.39-5.57,20.85-11,42.14-19.81,61.88a321.9,321.9,0,0,0-12.58,31.67c-1.79,5.51-3.43,11.07-5.15,16.59-1.5,4.84-4.82,10.66-4.84,15.67.89-1.42,1.18-4,2.63-5Zm-60.12,57.82c2.88-5.55,7.06-15.78,7.23-22C226.77,296.66,220.49,317.42,221.38,318.24Zm28.77-121.58c-2.21,5.69-25.17,63-26,62.67,2.44,1,43.5-101.14,48.32-110.54-3.81-2.11,8.5-19.77,7.32-23.79-3.11,2.41-4.79,10.06-6.4,13.66-2.94,6.53-5.71,13.14-8.4,19.78-5.13,12.67-9.92,25.48-14.87,38.22ZM241.36,358c7.53-23.81,15.45-48.76,22.14-73.38,6.54-24.06,14-49.09,23.35-72.2,5-12.37,9.89-24.34,13.48-37.24,1.79-6.42,3.47-12.88,5.24-19.3,1-3.77,5.58-13,4.64-16.93-4.12,2.07-7,24.31-8.43,28.88-3.32,11-7.52,21.68-11.47,32.46-3.79,10.36-7.46,20.76-11.12,31.16-3.52,10-5.89,22.56-11.38,31.63,1.19,7.38-5.21,19.55-7.19,26.81-2.84,10.4-5.67,20.4-9.24,30.58-1.58,4.49-2.2,9-3.37,13.51-1.1,4.26-3.36,7.73-4.77,12-3.26,9.86-6.5,19.71-9.92,29.52-1,1.19-1.84,3.12-3.13,4.08-.81.6-4.69,1.43-4.91,1.72-1.51,2-.93,5.19,2.51,4.9C235.83,385.48,239.68,363.29,241.36,358Zm-9-4.6c-1.18,4.71-2.59,13.66-5.74,17.53C226,367.14,229.91,356.19,232.4,353.39Zm-3.34-205.27c-.66,2.26,3.64,7.2,3,7.58C229.32,157.25,224.81,149.92,229.06,148.12Zm0,0c0-2.05.42-2.34,2.21-1.78,3.55,1.11.11,3.5,1.13,5.09A5.11,5.11,0,0,1,229.06,148.12Zm1.8,237.41c-.69,2.35.25,2.7,1.23,3.05a1.52,1.52,0,0,1-.32-.61c.47,1.58,7.24-7.34,7.68-8.28,2.13-4.59,4.49-10.21,5.29-15.2-3.66,5.17-3.6,13.08-8.42,17.65-.64.6-5.22,2.57-5.46,3.38Zm4.45-111.81c-.53,1.49-4.62,13.47-4.1,13.58,1,.22,7.41-19.9,8.23-22.3C239.46,263.36,235.69,272.66,235.31,273.72ZM231.44,375c4.52-6.78,6.42-16.89,8.88-24.62,3.2-10.07,6.33-20.15,9.7-30.17q4.8-14.28,9-28.73c1.39-4.84,2.75-9.7,4.12-14.55,1-3.48,1.7-11.39,4.68-13.83-.11-2.11,3.52-8.3,2.23-9.79-5.11,9-7.2,20.92-10,30.83-3.24,11.35-6.43,22.72-10.08,33.95-3.22,9.94-6.8,19.77-9.57,29.85C239.44,351.2,229.72,373.27,231.44,375ZM265,311.14c4-14.85,7-29.9,11.56-44.63,2.29-7.45,5.34-14.64,7.54-22.11,1.64-5.56,6.46-15.68,6.08-21.11-2,2.27-3.37,8.06-3.6,11.07-9.51,26.9-16.22,54.05-23.88,81.45-4,14.18-8.34,28.24-13,42.19-2.3,6.89-4.41,13.91-7.7,20.4-.22.44-6.57,10.3-9.2,10.43a1.59,1.59,0,0,1,.91.95c.34,1-2.19,1.47-1.32,2.5,4.62,5.48,17.09-30,17.77-32.17,5.19-16.18,10.48-32.55,14.85-49Zm-32.59,42.22c.3-1.31,2.83-8.15,3.74-11.82A28.57,28.57,0,0,1,232.36,353.36Zm1,22.08c2.45-3.32,3-7.53,5-11.05C237.87,368,236.26,374,234,377,233.3,377.8,233.28,375.61,233.39,375.44Zm.76-125.32c-.08-.93,4-12.51,5-11.79S234.65,249.68,234.15,250.12ZM244.93,385c3.27-10.17,8.09-19.85,11.12-30.05.53-1.79,4.6-16.49,5.71-21.89-2,8.2-13.5,39.3-14.95,43.44a43.13,43.13,0,0,1-3.71,8.67c-1.85,3-6.62,5.21-8,7.82-1.05,2,.1,2.63,1.69,1.81,3-1.54,4.58-5.3,7-7.5-.45,4.38-6.1,6.1-6.59,9.86,2.25-1.49,10-8.83,7.71-12.17ZM236,141.47a4.65,4.65,0,0,0,1,4.08,6,6,0,0,1-1.32.28c-.34.46,4.86,3.51,5.2.69C241,145.58,236.68,143.5,236,141.47Zm.34,197.8c-1.75-2.08,4-14.51,4.83-16.68,2.53-7,4.77-14.18,6.92-21.36,2.36-7.87,4.59-15.79,7-23.64,1.6-5.15,3-15.38,7-19.32C254.12,285.48,245.47,312.43,236.34,339.27Zm0,0c.18.22.06,1.08-.24,2.27.09-.75.17-1.51.24-2.27Zm3.45-103c1.39-5.86,4.58-11.6,6.73-17.25s3.56-12.19,6.76-17.25C254.7,204.81,242.12,236.49,239.79,236.26Zm19.88-115.32c-.65-2.28-23,18.81-19.3,20.75C239.84,141.41,257.65,122.61,259.67,120.94ZM249,155.82c.84-1.12,2.62-11,2.47-11.53s-12.49,8.24-7.23,13.23a1.76,1.76,0,0,0-.14,1.42c.62-1.16,5.36-3.74,4.9-3.12Zm-1.45-13.56c-2.42-.67-3.75,3.57-2,3.22C245.63,145.41,248.74,142.58,247.57,142.26Zm26.08-26.58c-.1-.72-9.92,6.83-11.4,8.11-2.84,2.45-13.8,10.51-13.58,14.26.34,5.83,9.27-7.3,9.93-8.05A166.83,166.83,0,0,1,273.65,115.68Zm-18.73,30.49c-5.9.21-1.24,7.71-1.48,9.22C256,154.66,258.63,147.1,254.92,146.17Zm9.25-3.79c1.63-1.71,9.34-16.32,8.43-18.19-2-4.12-11.66,5.85-12.85,8.23-.06.09-1.06,1.3-2.28,2.93a53.89,53.89,0,0,1,5.18-5.18c2.11-1.55,3.45-4.15,6.1-5-2.11,3.06-9.08,12-12.44,13.66-1,.48-1.38.47-1.38.14-1.91,3-3.08,5.78-.36,5.22,2.32-.48,11.31-18.61,15.11-16.15,1.49,1-5.4,12.43-5.51,14.33Zm-3.18-.27c0-.49-.07-1-.1-1.48-1.3,1.07-3.58,5.21-1.72,6.63C260.79,148.48,260.77,142.4,261,142.11Zm10.28,68.3s-10.29,25.37-9,27.06C263.94,235.18,271.42,210.44,271.27,210.41Zm14.1-67.9c-1.88,2.8-2.53,7-3.55,10.24-1.9,3.74-19.33,43.75-17.5,45.2,5.44-8.62,9.18-19.72,12.44-29.34C277.6,166.15,286.68,143.46,285.37,142.51ZM270.61,299.4c-1.4-.47-2,6.64-2.12,7.21-2.12,4.08-4.52,11.62-3.95,16.14C266.65,322.16,270.62,299.41,270.61,299.4Zm2.22-27.93c2.21-3.44,3-9.21,4.19-13.16C277,258.28,272.41,268.53,272.83,271.47ZM293.88,139.4c2-5.43,7.81-13.89,5.49-19.63-3.09,1.7-6.94,18.65-8.43,22.59-2.43,6.45-6.28,14.14-6.54,21.07-2.12,5.22-4.7,10.18-6.68,15.48-1.34,3.59-5.3,9.45-4.62,13.19,3.68-4.17,4.29-11.41,6.94-16.25A106.66,106.66,0,0,0,287,160.18c2.51-6.87,4.41-13.91,6.89-20.78ZM278.4,123.93c.52-.91,7.53-14.52,5.61-15.27C284.77,109,276.92,122.44,278.4,123.93ZM282.18,267c.57-2.06,1.16-4.11,1.75-6.17C283.43,262.91,282.86,265,282.18,267ZM326,122.62c5.1-1.5-4.67,29.88-5.38,32-4.57,13.37-7.07,27.67-12.13,40.8s-12,25.36-16.39,38.84c-2.85,8.75-5.59,17.66-8.16,26.6,1.84-7.7,2.73-15.84,4.48-22.93,3.17-12.9,9.29-24.78,14.4-37,5.57-13.28,9.4-27.09,13.34-40.91,2.2-7.69,4.49-15.35,6.79-23,.28-.92,3.1-14.4,3.05-14.39Zm-41.7-.1c3.13-3.19,3.61-7.32,4-11.42C286.42,114.69,283.14,119.55,284.28,122.52Zm4,101.61c-1.29-.33-3.45,9.26-3.45,10.13C285.06,233.77,288.63,224.23,288.23,224.13ZM293,129c-.13-3.12,2.19-8.09,3.83-10.63.45.47-.34,3.4-.35,3.45C295.92,123.44,294.7,127.76,293,129Zm5.91,4.67c2.93-2.08,2-6.7,3.55-9.75C301.77,122.13,298.84,132.22,298.89,133.62Zm9.43,1.38c3.89-5.4,4-13.21,4.89-19.5l-.09-1.65C311,119.19,308,129.43,308.32,135Zm4.48,4.43c-1.1,3.55-2.74,7.26-3.14,10.95,3.65-3,4.58-12.24,5.54-16.58C314.54,131,313.28,137.86,312.8,139.43Zm5.51-2.88c-.42,2.73-9.88,30.77-7.9,31.25,3.54.87,13.87-52.29,9.4-52.22.08,4.75.44,9,.19,13.84-1.87-1.09-1.18-8.41-1.38-10.11-.39-3.23-.23-7.73-2.24-10.36C316.83,117.81,319.58,128.26,318.31,136.55Z"></path></svg> 