<?xml version="1.0" encoding="UTF-8"?> <svg xmlns="http://www.w3.org/2000/svg" id="Layer_1" data-name="Layer 1" viewBox="0 0 500 500"><defs><style>.cls-1{fill:#281a39;}.cls-2{fill:#fff;}</style></defs><circle class="cls-1" cx="250" cy="250" r="230"></circle><path class="cls-2" d="M150,365.24c-2.28-3-4.69-5.87-6.94-8.91-.35-.47-6-9.32-5.67-6.07.66.87-4.33-4.79-3.9-5.4C136,341.42,146.09,357,147,358.15a109.92,109.92,0,0,0,9.61,9.33c1.81,1.66,3.54,4.61,5.37,6.22a3.36,3.36,0,0,1-.93-2.18c.71.49,9.57,5.81,9,6.69a2.11,2.11,0,0,1-1.95-.76,36.24,36.24,0,0,1-5.34-3c1.23,2.45,4.36,3,5.58,5.5-6.44-1.47-14.56-9.62-18.41-14.71Zm187.3-48.06c.15,2.4-2.1,31.31-6.53,29.13-.06,0,5-13.91,5.25-15.63,1.37-8.46-.11-17.64-2.23-25.85-.83-3.25-17.81-42.44-20.5-40.47-.35.25,16.26,32.5,17.79,35.91,5.22,11.65,4.74,27.89-.29,39.89-10.24,24.43-37.7,46.92-64.33,49.54.19-1.4,15.22-4.84,17.68-5.93,7.42-3.29,15.17-7.55,21.2-13,4.58-4.16,28.33-29,23.78-35.91-4.94,6.19-7.85,13.75-12.94,19.94a84.9,84.9,0,0,1-16,14.85c-3.31,2.39-37.94,20-38.15,18.06-.12-1.07,20-8.89,22.26-10,8-4.15,15.85-8.76,22.36-15.07,12-11.64,20.21-31.42,15.76-48.29-1.59,7.61.29,14.88-2.54,22.58a68.25,68.25,0,0,1-14.26,22.78C292.7,373.33,274,383.18,256,388c-1.16,2.93-8.24,1-10.73,1.53-1.56.36-10.53,4.35-9.63,5.51,0,0,8.2-1.09,7.8,1.29.34-2-12.2,3.33-12.69,3.6-4.39,2.46-11.16,2.39-15.06,5.14,4.44,1.13,21.12-6.74,23.3-4.64-9.66,8.46-24.37,8-36.33,7.62,3.78.42,35.36.15,34.94-1.53.34,1.35-3.53,1.81-4.14,2.36-1.33,1.21.85.52.09,2.23-.91,2.05-11.17,1.43-13.66,2.39-5.28,2.05-6.06,3.15-12.23,2.66-10.39-.81-18.12-4.65-27.17-9.7-20-11.16-30-23.77-38.84-44.55a7.9,7.9,0,0,1,1.47.94l-.19-.31c4.82-2,7.87,4.43,10.41,7.35,3.87,4.46,9.11,7.08,13.89,10.45,10.52,7.44,21.49,13.89,34.44,15.82,10.77,1.61,24.68,1.64,34-4.13,2.84-1.76,3.49-2.61,7.42-3.88a59.13,59.13,0,0,0,9.83-4.1c4.15-2.23,12.2-5.4,11.82-11.35-4.82.73-10.5,7.26-15.22,9.28-6.21,2.66-12.89,4.28-19.45,5.83-14.24,3.35-25.61,2.65-39.34-2.43-12.34-4.57-25.1-11.91-34.31-21.46-1.87-1.94-20.15-23.57-20.06-23.68,3.32-4,16,17,18.28,19.66,3.24,3.83,33.41,27.72,37.36,23.22-2.18-1.42-24.42-11.4-23.17-13.72-.77,1.42,15.79,4.64,17,5,9.89,2.66,17.59,6.7,28.41,6.65,9.75,0,19.58-2.32,28.78-5.47,2.34-.8,21.91-9.85,20.06-12.2,1.72,2.17-30.25,14-33.74,14.36.08-.4,1.68-1.11,2-1.46-6,0-12.08,3.88-18.61,3.86-5.89,0-15.5-1-20.1-5.07,1.33-1.26,7.87,1.76,9.83,2.09,5.24.88,10.31.44,15.57-.28a114.54,114.54,0,0,0,31.22-8.44c7.43-3.31,12.88-8.52,18.85-13.66,2.24-1.92,16-14.51,12.86-18.07-6.16,5.56-11.19,12.62-16.91,18.9l.15-.13c.18-.16,4.3-4.86,4.72-3,.5,2.19-8.36,7.71-11.74,9.77a43.86,43.86,0,0,1-5.9,4.13c-13.5,7.76-32.34,11.18-47.6,8.64-16.14-2.69-30.58-11.78-43.34-21.72-1.3-1-3.6-2.67-6-4.63a44.08,44.08,0,0,0,6.28,7.62c2.37,2.1,26.34,16.77,26.27,17-.74,2-20.9-9.74-22.69-11.05a51.69,51.69,0,0,1-11.32-11.36c-1-1.32-4.54-8.59-6.36-8.46-.25.64-.52,1.27-.8,1.91,3,3.8,6.11,8.89,6.18,8.84-.92.69-10.82-11.76-11.59-12.64.64-.72,1.8-.07,3.14,1.23-2.23-2.92-5-7-3-6.46a13,13,0,0,1,4.61,2.32,3,3,0,0,1,0-.42c-.18-6.42,6.14-4.32,9.94-3.14-1.05-.85-1.93-1.63-2.46-2.13-.21-.19-5.52-1.69-2.12-2.68,2.21-.64,6,2.69,7.28,4a66.58,66.58,0,0,1,5.34,5.68c-1.57-.09-4.4-2-6.81-3.89a5.5,5.5,0,0,0,.87,4.15c5.71,1.84,10.82,6,15.8,9.24,10.55,6.77,23.65,14.13,36.11,16.31,13.05,2.28,30-1.26,42.16-6.24a61,61,0,0,0,16.2-9.91c1.38-1.17,12.36-10.27,11.37-12.6A133.36,133.36,0,0,1,260,350.62a2.43,2.43,0,0,0,1-1.65c-17.26,6.27-35.55,10.7-53.68,5.16A68.48,68.48,0,0,1,186,342.9c-1.77-1.34-18.65-15.84-17.67-17.09,2-2.56,20.74,15.18,22.77,16.88a62.63,62.63,0,0,0,27.19,12.66c19.14,3.24,50.42-6.05,61.53-23.08,10.57-16.19-10.49-36.2-21.6-45.46-6.81-5.68-15.37-16.83-23.38-19.6-.8-.27-31.21-3.46-27-8.69.45-.57,12,5.12,15.35,2.66-7.86-1.15-15.63-2.55-20.95-9.07-.27-.32-4.88-5.55-4.92-5.71-.64-3.19,4.54-3.88,6-6.6-1.44.07-8.07,3.37-7.95,3.51-3.62-3.95,16.2-5.08,16.12-5.08.43,0,17.16,2.74,13.53,5.8-1.07.9-3-2.68-3.6-.75-.45,1.32,1.5,3.33,2.7,3.4,4,.22,4.15-10.65.27-8.5.59-2.3-3.48-4.1-4.78-2.77-2.32,2.38,7,2.45,5.59,4.31-1.22,1.63-9.18-2.61-11.09-2.84-2.75-.32-5.7,1-8.44.91-2.25-.09-4.24-2.36-6.56-1.31-.69-6.56,22.4-6.64,22-9-.53-3.1-19.44,6-20.49,4.3-.69-1.12,7.15-2.86,6.52-4.29-.89-2-3.94,2.18-4.58.58-1.06-2.7,20.22-3.91,21.64-6.16-3-.07-6.28.3-9.35.48.32-3.37,13.48-1.45,15.72-1.47.36,0,1.66-.2,3.38-.49-3.15-.12-9.66-.83-9.55-2.44.07-1,35.43-6.69,35.51-5.94.12,1.06-23.63,6.15-26.35,7a5,5,0,0,1,1.79,1.12c4.74-.84,11.23-2.15,11.34-2.57.19-.71-1.78-.08-1.78-.42,0,0,8.94-2.59,17.18-5.17a.48.48,0,0,1-.42-.34c.15.54,4.48-2.19,9.29-5.41-6.43,3-14.24,5.56-14.63,3.28s12.19-1.42,12.52-3.84c-2.13,0-23.68,6.36-35.11,8.16,3.87-.31,9.66-.68,8.42-.31-2.13.64-23.47,4.9-23.69,3.66-.28-1.55,7-2.47,10.61-2.87-1.36,0-2.21-.21-2.34-.71,0,.19,26.19-7.73,28.52-8.28a13.88,13.88,0,0,0-1.55,1.42c1-.73,7.49-1.54,8.73-2.79A32.45,32.45,0,0,0,277.19,202c3.33-2.32,6.05-4.25,6.64-4.7,8.22-6.15,17.13-10.11,24.11-18,5.51-6.24,15.34-22,9.38-30.69-2.27-3.3-9.9-5.39-13.6-6-7.23-1.24-11,1.16-16.8,5-10.14,6.77-21,12.42-33.55,11.93-9.48-.37-25.39-4.44-30.25-12.8-4.1-7.06-5-12.13-3-20,.55-2.1,1.27-5.5,2.29-7.23,1.28-2.18,2.78-2.43,4.12-4,.18-.21,6.9-9.31,7.78-7.78-.65-1.14-4.49,3.43-5.28,2.36-2.57-3.53,25.19-16.28,27.62-17.67,4.87-2.78,7.85-5.29,13.29-7,5.23-1.67,8.67-2.26,13.43-4.27,10.28-4.34,23.1-.25,32.62,4.12,3.08,1.42,31.65,13.94,29.41,18.11-.76,1.42-7.25-4.92-7.7-5.26-2.05-1.53-4.34-3.37-6.76-4.23-1.34-.47-2.62.51-3.91-.53-.76,2.89,11.82,10.86,13.92,13.85,3.2,4.58.11,3.76.37,8.66.06,1,3.35,6.59,3.73,6.24-2.72,2.51-.44,2.37,1.6,6.19s2.16,7.41,2.19,11.77c.51-.32.84-3.21,1-3.6,4.64,2.51-1.23,18-2.37,21.37-.76,2.2-8.78,19.83-8,20.29,2.53,1.52,9.49-18.32,10.29-20.78a55.36,55.36,0,0,0,2.85-13.88c.11-2.26-1.6-10.24-.41-11.55,5.53,3.93,3.69,11.93,5.07,17.53,1.5-3.52-3.84-23.47,3.77-10.59,5.3,9,.9,19.39-2.15,28.18-3.31,9.48-8.5,18.84-13,27.81-1.32,2.63-15.46,24.71-15.62,24.54,1.8,1.95,21.57-32.61,23.15-35.33,7.24-12.37,17-31.59,8.71-45.58,7.87.74,3.2,21.45,2,25.39-3.32,11.29-9.43,21.33-14.28,32-4,8.8-7,15.63-13.15,23.31-2.41,3-4.36,6.49-6.52,9.64.89-1,1.88-2,2.77-2.93a2.11,2.11,0,0,1,1.07-1c.38,0,.18.64-.34,1.54,1.41-2,2.94-3.74,4-3.9-1.68,3.27-3.66,8.56-7.55,9.65.26-.51,1-1.87,2-3.41a58.39,58.39,0,0,1-4.67,5.74,7,7,0,0,1,1-3.34l-.3.37c-3.39,4.18-8.4,6.8-12.2,10.49,1,.89,10.05-6.12,11-6.73-1.81,4-8,5.07-9.44,8.6-1.53,3.72,3.27,7.69,5.35,10.87,2.22,3.39,14.81,24.65,10.23,28.3-2.76-4.77-3.28-11.16-5.9-16.25a100,100,0,0,0-11.4-16.58c-1.75-2.17-19-23.46-20.88-22,6.69,8.46,14.47,15.93,20.76,24.81,2.88,4.06,16.2,24.36,11.82,29.29-7.89-27.63-30.35-62.18-62.06-63.44,2,2.42,5.41,3.34,7.57,5.92-.52.24-16.42-7.56-16-4.33-.2-1.56,30.34,14.93,31.05,14.87-.63-.87-5.32-2.8-4.85-4,1.27-3.15,12.17,9.49,12,5.09C315.2,248,320,271.26,331,288.66c5.23,8.29,5.66,18.57,6.31,28.51Zm-124.21,84.1c1.85-.14,17.55-1.45,17.94-4.24-8.7-.1-17.07,2.76-25.92,2-10.27-.84-19-4.95-27.87-10-7.84-4.47-15.61-8.54-22.24-14.78-3.09-2.91-5.37-4.39-7.46-6.25,2.56,3.88,4.86,8.51,7.18,11.28,4,4.81,8.91,11.52,14.32,14.65a82.34,82.34,0,0,0,33.35,14c-9.93-2.52-18.91-6.9-28-11.47-3.58-1.79-6.84-3.25-9.76-6.08-1-1-7.89-9.14-6.77-9.25,2.47-.24,11,6.88,13.72,8.31,6.34,3.38,12.21,7.19,19.15,9.31a61.25,61.25,0,0,0,22.36,2.46ZM157,339.15c-2.19-1.69-6.47-3.2-9.09-3.91,2,4.14,6.16,3,9.09,3.91Zm-6.3-13.76c.57-3,11.56,1.4,10.91,3.13C161.27,329.42,150,329.14,150.7,325.39Zm88.59,33.43c2.1-.6,11.11-3.15,16.85-5.87a86,86,0,0,1-30.57,10.37c-20.8,3.07-43.63-7.69-59-21.3-2.7-2.39-14.67-15.75-3.82-11.55,3.6,1.39,6.71,6,9.79,8.35a85.16,85.16,0,0,0,12.25,7.48c8.55,4.4,18.18,9.17,27.62,11.09a57.62,57.62,0,0,0,15.46.82c3.69-.25,9.95-2.77,13.34-1.5-1.85,2.82-13.31,2.83-16.51,3.19-7.76.86-14.63-.42-21.9-3.2-2.54-1-33.58-16.28-32.78-17.08-.79.79,1.24,1.2.54,1.83-.52.46-3.89-2.51-4.75-2.53,2.23,6.88,16.58,11.65,22.55,14.69,7.8,4,15.88,8.2,24.78,8.75C221.57,362.88,231.16,361.13,239.29,358.82Zm23.25-4.29c-1.11-.48-17.5,9.74-20.38,10.66a95.46,95.46,0,0,1-30.87,4.71c-9.76-.25-18.07-4.06-26.72-8.29-3-1.46-23.32-14.2-23.7-13.69-2.09,2.78,21.4,15.38,23.91,16.7,10.39,5.49,21.73,9.66,33.64,7.47h3.41c-.72,1.16-3.6,1.05-4.77,1.42,1.54,3,24.8-4.11,27.1-5.95-5.66-.16-12.17,5.64-17.84,3.84,3.93-3.5,14.37-4.15,19.25-6.08C251.53,363,258.48,359.67,262.54,354.53Zm-92.27,26.6c5,0,9.4,4.24,13.81,6.28A64.26,64.26,0,0,0,198.17,392a72.87,72.87,0,0,0,31.48-.91l3.6-.52C212.07,400.22,188.8,392,170.27,381.13Zm38.21-14.06c3-.22-5.08-2.24-3.6-1.67-3.09-1.18-6.28-1.9-9.34-3.22-2.29-1-15.51-8.75-16.45-7.35S206.36,366.7,208.48,367.07Zm28.71,13.21c-3.05-1.58-9.89,1.4-13.17,1.93a77.59,77.59,0,0,1-17.68,1,44.91,44.91,0,0,1-14.68-3c-3-1.27-7.09-5.42-10.43-4.48,6.14,5.75,18.82,9.09,27.09,8.86A109.63,109.63,0,0,0,237.19,380.28Zm-22.73,6.61c-3.69-1-11.58-1.2-15.35-.65,2.34,1.08,5.58,1.2,8.07,1.62A48.06,48.06,0,0,0,214.46,386.89ZM202.6,243.29c3-.3,6.87.08,9.68-1-1.78-1.79-6.36-1.83-8.46-.55-.49.29-3.36.79-1.22,1.6Zm9.43,7.56a18.37,18.37,0,0,0-5.48-1.11,3.34,3.34,0,0,0-2.09.27C207,250.92,209.38,250.77,212,250.85Zm2.07-15.66c-1.4-.29-9.29.94-7.25,1.28C209,236.25,212.18,236.44,214.1,235.19ZM236,418.48c-2.27.4-21.83,1.89-21.52.71s20.46-1.69,22.73-1.52Zm1.26-156.37c-1.55-2.06-12.34-14-13.26-12.1C223.63,250.82,237,262.41,237.28,262.11ZM236,415.19c-1.34-1.46-4.87.31-4-2.47-.2.67,4.46-2,4.38-1.93C238,410,254,401,254.87,403.15c0,.07-12.2,8.92-12.9,9.61,1,.69,5-1.55,6.13-1.75-.06.53-2.46,1.66-2.37,1.91.48,1.32,25.47-10.31,28.64-11-.34.38-2.78,2.26-2.54,2.64s4.54-.64,4.84-.53c-3.46,1.76-44.91,16.58-45.68,13C230.75,415.94,235.9,415.21,236,415.19Zm-4.3-184.33c.29.7,6.55,2.35,6.68,1.59C238.52,232.57,229.74,226.05,231.68,230.86ZM261.31,98c-3.41,0-29,12.86-28.62,13.22S258.84,99.05,261.31,98Zm22.05,305.21c2.48,3.34-41.79,16.44-44.81,17.53h-4.68c2.17-3,9.88-2.72,13-3.51a123.05,123.05,0,0,0,13.88-4.56C262.71,411.88,282.8,402.45,283.36,403.19ZM257,373.87c-1.51-1.43-13.26,6.27-11.67,6.53C245.38,380.38,259.44,376.19,257,373.87Zm62.17-41.18a47.79,47.79,0,0,0,1.72-14.77c-.1-2.7-1.05-5.83-1.62-8.8.43,4.48,1.36,17.65-.55,17.93,1.63-.25-4.21-36.59-8-39.47-1,2.78,2.69,9.52,3.53,12.49a67.79,67.79,0,0,1,2.84,18c.11,11.21,0,19.54-6.31,29.16.27-.67,3.29-6,2.26-6.55,2.24,1.27-22.63,26.09-25.25,27.93-2.82,2-34.87,18.67-34.83,18.85.11.54,2.59.49,3,.46-.07-2.28,20.29-9.43,23.07-11,9.09-5.09,18.55-11.75,25.75-19.34a63.49,63.49,0,0,0,14.4-25ZM256,388Zm4-37.32a17.57,17.57,0,0,1-3.84,2.31c1.3-.74,2.57-1.51,3.84-2.31Zm10.15-230.51c-2.51-.65-12.71,3.57-11.95,4.09A42.17,42.17,0,0,0,270.12,120.13Zm-.76,107.41c.17-1.68-8.52-5.28-9.63-5.18C260.74,223.49,268.15,229.92,269.36,227.54Zm16.45,34.89c-1.54-3.31-23.32-25.17-25.2-22-.08.15,13.37,10.27,14.61,11.45C277.35,253.91,284.6,264.18,285.81,262.43Zm49.65-97.94c4.08-8.63,9.58-20.21,9.15-29.9-1.21,5.08-6.3,30.09-13.09,30.68,1.21,5.22-9.47,19.95-12.36,24.36a136.94,136.94,0,0,1-20,23.54c1-7.35,12.48-13.47,15.7-20.3-1.73-.19-6.29,7-7.71,8.5-2,2-7.24,9-10.41,9a67,67,0,0,1-7,6.68c-5,4.06-5.32,4.28-11.45,1.78-4.82-2-10.32-5.22-15.71-4.46,3,1.43,19.57,8.68,22.12,7.06,3.83,0,6.92-4.38,10.58-5.33-.67.8-7.39,5.33-7.14,5.9,1.05,2.34,17.32-12.92,18.4-14.07,6.69-7.18,12.28-15.27,18-23.2,4.42-6.11,7.59-13.27,10.89-20.26ZM263.92,364.07c1.28-.18,3.8.74,3.42,1,1.42-.57,3.91-6.5,4.24-7.11-.26-1.26-5.9,3.6-7.66,6.14ZM295.4,192.64c-2.08,1.7-20,13.79-28.86,18a69.42,69.42,0,0,0,8.86-3.25c5.61-3.3,11.22-7,16.47-10.87a64.53,64.53,0,0,0,6.58-6.42c-1,.85-2,1.7-3.05,2.56ZM266.89,376c7.54-4.87,10.94-13.86,14.64-21.73,2.25-4.79,12.41-21.29,9.31-26.29-.32-.52-4,9.09-4.19,10.2,1.5,4.29-6.47,16.14-8.41,20.21s-5.42,12.1-8.92,14.58c.05-3.92,18.58-41.26,17.53-41.72C286.13,331,266.51,372.16,266.89,376ZM321.68,164.1A140.4,140.4,0,0,1,304.08,185a7.85,7.85,0,0,1,2.44-1.2c-4.31,7.25-11.83,12.74-18.7,17.39-1.88,1.27-19.3,11.12-19,11.93.93,2.22,28.66-18.1,31.08-20.31a103.93,103.93,0,0,0,12.8-14.05c1.56-2,10.05-11.74,8.94-14.63Zm-37,63.36C281.92,230.13,270,221,271,220.77,272.6,220.4,283.75,226.3,284.67,227.46Zm-8.8,17.89a83.37,83.37,0,0,1,11.9,11.33c1.58,1.86,15,22.74,15.28,22.6,1-.49-10.59-18.24-11.87-19.91a75.66,75.66,0,0,0-19.62-18C270.05,241.15,275.2,244.83,275.87,245.35Zm-1.65-30.2c2-.74,9.12-5.12,10.21-7.23C282.91,208,272.53,214.57,274.22,215.15Zm18.13,124.67c.72,3-17,29.35-16.56,29.78,3,2.72,16.67-24.23,16.73-28a2.21,2.21,0,0,0-.17-1.8ZM276.79,404c-.09,0-.16,0-.18,0l.18,0Zm27.13-20c2.92,3.19-22.69,19.31-27.13,20C279.17,403,302.81,382.7,303.92,383.92Zm-17-267.79A8.24,8.24,0,0,0,282,115a5.88,5.88,0,0,0-3.75.27C279.38,116,285.88,116.45,286.91,116.13ZM297.4,84.06a12.75,12.75,0,0,0-5.15-.26c-3.84-.33-8.76.06-12.31,1.62C284.84,85.85,292.54,84.93,297.4,84.06Zm-9.61,147.1q-1.85-1.57-3.8-3c2.06-2,4.33,1.58,6,2.64A1.33,1.33,0,0,1,287.79,231.16Zm32.1-124.5c1.3-2.24-26.77-11.62-28.91-12.25l-1.68.2C291.37,95.53,320.71,105.23,319.89,106.66ZM289.51,209.07c1,1.15,11.28-9.38,11.95-10.29,2.53,1.15,8.47-4.93,7.13-6.14S289.5,209.06,289.51,209.07Zm17.24,45.61c.72-3-9-10-13.11-12.84,3.15,2.8,10.56,11,13.11,12.84Zm.35-157.31c-3.78-1.92-8.05-3-12.07-4.4.47.21,9.93,5.63,12.07,4.4ZM302.68,301c-1.57-3.61-3.34-11.64-6.71-13.85-.81,3.23,6.27,13.08,6.7,13.85Zm2.05-86.28c4,.81,15-15.85,14.79-16-.57-.31-11,12.66-12.25,13.67-2.49,2-10.41,5.85-11,9.14C299.34,220.13,302.16,216.89,304.73,214.72Zm-1.25-21.45c-.48-.72-6.22,4.89-6.72,6.12C299.4,198.72,301.7,195.17,303.48,193.27Zm40.09-65.91c.72.13-11.08,31.3-12.51,34.36-4.85,10.37-9.51,20.57-17.2,28.46C308.2,196,303.45,202.82,298,209c5.71-6.1,12-11.94,16.69-18.85,1.36-1.39,1.52,0,3.08-1.13,2.07-1.54,3.95-5.74,5.31-8.08,3.07-5.25,5-10.6,8.4-15.67-.57-2.23,17.65-36.88,12.1-37.92Zm-44.74,223c.82-.61,6.8-8.28,5.51-9.75C303.29,341.66,298.38,350.15,298.83,350.4Zm.3-7.86c1.8-3.51,1.74-7.93,1.45-11.78,0-1.92.38-4.38-.35-6.21C299.31,329,298.25,338.15,299.13,342.54Zm7.25-46.79c-.4-.84-3.61-8.79-4.34-8.62C300.65,287.47,306.74,298.63,306.38,295.75ZM303,127.41c.89.09,9.05,6.45,11.31,7-.73-2.58-8.5-7.09-11.31-7Zm1.33-34.75c-1,.21,6,2.73,7.54,3.34a62.25,62.25,0,0,1,11.32,5.64A36.94,36.94,0,0,1,331.5,109c1.44,1.77,2.35,4.81,3.93,6.24-.36-.33,3.55,3,3.16,2.17,1.64-3.67-9.14-12.89-11.63-14.73-6.73-5-14.84-7.22-22.61-10ZM331.6,186c.55-1.11,3.9-10.31,2.33-8.79-2,1.91-2.82,7.24-4.1,9.89a111.24,111.24,0,0,1-7.72,13.5C318.85,205.47,315,209,311,213.26c-1.55,1.64-8.74,8.35-6.16,9.34a108.19,108.19,0,0,0,19.46-23.4C326.93,194.92,329.35,190.49,331.6,186ZM305.71,336.74c2.22-3.72,4.17-30-1.35-31.42-.51,6.7,2.17,15.2,2.44,22.13C307,330.65,305.88,333.6,305.71,336.74Zm4.66-111.52c-.44-1.09-7.08,5.51-5.25,6.21C306.23,231.4,310.77,226.24,310.37,225.22Zm5.7-82c-1.4-1.91-5.06-4.74-7.58-5C309.74,140.42,315.13,142.3,316.07,143.18ZM318.49,174c-2.9,4.68-8.53,9.86-9.93,15.13,4.4.89,13.75-20.48,15.12-23.28C323.88,163.92,319.11,173,318.49,174Zm2.34,96.88c-.61-1.89-8.91-17.79-10.95-16.35C309.58,254.75,320.74,271.79,320.83,270.88ZM310,106.71c.44.21,12.21,8.43,13.49,9.88,4.67,5.27,5.92,11,6.43,17.89a35,35,0,0,0,.66-4.67c-1.74-5.79-1.56-10.14-6.29-14.54-3.69-3.43-9.36-7.23-14.29-8.56Zm2.83,215c.16-.73-.93-8.94-2.31-8.68C308.79,313.36,312.8,332,312.8,321.73Zm8.4-13.89c.13-2.67-7.55-23.22-8.72-22.53.25-.15,5.28,16.77,6.42,21.62a11.32,11.32,0,0,1,.05-3.3c.09-.51,2.06,3.76,2.25,4.21Zm-7.38-32.75c.39,1.49,7.72,15.23,8.94,15.15.46-.36.43-.81-.06-1.33C320.81,287,317.83,274.26,313.82,275.09Zm1.28,50.6.28-4.64c.09-.83-.6-10.51-1.05-10.48C313.43,310.64,315.05,324.33,315.1,325.69Zm5.83-201.48c.91-.95-5.53-5-6.11-5.27C313.3,118.94,320.73,124.42,320.93,124.21Zm-5.62,5c1.3,2.08,5.71,14.49,5.79,14.53l.19-1.94a16.1,16.1,0,0,0-6-12.59Zm1.25-39.19c1.13.69,8.16,3.84,8.06,1.61C323.84,90.21,318.22,89.46,316.56,90.07Zm6.14,132c-1.17-.65-5.95,6.38-5.45,6.8C317.69,228.47,323.11,222.25,322.7,222Zm-1.55,71.32c2.61,10.16,8.47,18.38,7.7,29.41,0,1.89-.29,4.07.28,5.89,1.05-2.58.41-6.11.56-8.87,1,.19-.27,2,.89,2C333.43,321.79,322.77,295.06,321.15,293.35Zm1.41,46.22c2.54-4.05,3.27-9.73,3.45-14.43a78.45,78.45,0,0,0-.71-8.28c.45,3-3,22.46-2.74,22.71Zm.52-178.06c5.5-8.22,11.33-21.58,13.38-31.29-3.51,5.64-5.4,12.46-8.26,18.48C327.41,150.37,320.88,161.4,323.08,161.51Zm1.27-22.66a4.67,4.67,0,0,0,1.14,1.5c1.48-.36.23-6.62-.33-7.47-.36,2.12.68,4-.9,5.88-2.52.64-.65,13.3-.89,15.54C326.41,153.28,324.29,140.85,324.35,138.85Zm-.25,30.31c2.13-1.25,4.64-7.26,5-9.66v-1.89C327.3,159.52,324.24,166.3,324.1,169.16Zm8.44-44.86c-.07-.41-5.1-14-6.5-12.43,1-1.09,6.57,19.2,7.36,20.2a13.79,13.79,0,0,0,1.22-5.9c-.26-4.14-1.3-9.41-4.63-12.25C329.58,114.46,332.66,122.75,332.54,124.3Zm6.72-11.37c1.83-1.22-7.87-9.68-9.17-10.65.66.69,8.08,11.38,9.16,10.65Zm19.59,43.29c-1.74,7.08-4.87,13.66-8.16,20.13-1.51,3-18.54,34.33-18.56,34.32,1.74,1.09,16.29-27.31,17.61-30,5.54-11,10.67-21.25,11.3-33.83.38-1.37-1.12-10.37-3-9.45,2.29-1.07,1.06,17.95.85,18.79Zm-19.37-22.6-.2-1.26c-.43.59-5.15,13.72-4.47,13.95C335.28,146.47,339.14,134.61,339.48,133.62Zm-3.58,61.1c1.16.56-.21,2.25.73,2.56,3.56,1.15,18.41-33.72,19.3-37a4.94,4.94,0,0,0-1.68.42c-1-.57,1.18-8.34,1.07-9.68-2.26.77-2.51,25.56-7.87,23.31-1.1-.46,1.32-2.66.1-3.19C346.67,170.76,337.1,192.11,335.9,194.72Zm1.25,149.08c-.17-.39.81-8.8,1.8-8.58C340.47,335.56,337.81,342.9,337.15,343.8Zm7.65-188.62c-.37.93-6.56,15.52-6.27,15.65,1.11.5,10.91-23.8,9.16-24.6C346.52,145.7,344.87,154.75,344.8,155.18ZM339.91,159a9.69,9.69,0,0,0,2.84-5.48C342,152,339.76,157.88,339.91,159Zm3.91-10.34c1.38-1.87,2.08-5,2.85-7.13C345.51,138.48,343.81,148.22,343.82,148.7Zm8.38-16.84c-1,1.06-5.72-6.24-6.7-7.53C348.41,126.23,351.67,128,352.2,131.86Zm-3,71.86c-.32,1-.71,1.06-1.17.26.39-1.39,7.59-16,7.8-15.87C357.53,189.07,349.7,202.74,349.16,203.72Zm2.78-97.55c2.32-2.45-2.12-5-2-5.42,1.51-4.74,3.67,3.3,3.75,3.56,0-.14,1.2,6.33,2.12,6.69-1.35.12-6.47-2.11-3.9-4.83Zm4.18,4.71c-.09.12-.18.15-.28.11a.37.37,0,0,0,.29-.11Zm1.4,73.91c-.76,1.45,1.09-4.62,1.5-5.51.27-.58,4.9-12.13,5.58-11.93C366.08,167.77,358.37,183.19,357.52,184.79Z"></path></svg> 