<?xml version="1.0" encoding="UTF-8"?> <svg xmlns="http://www.w3.org/2000/svg" id="Layer_1" data-name="Layer 1" viewBox="0 0 500 500"><defs><style>.cls-1{fill:#281a39;}.cls-2{fill:#fff;}</style></defs><circle class="cls-1" cx="250" cy="250" r="230"></circle><path class="cls-2" d="M153.87,368.41c-1.12,2.3-6.69-2.42-7.89-2.69-5.19-1.17-2.48-.34-5.08,1.18-.42.25-4.41-1.13-4.06-2.1.58-1.58,2.4,2.09,1.85-1.26-.82-4.92-4-5.72.47-10.59,3.73-4,7.69-7.85,11.55-11.77-3,4.42-9.44,9.07-11.62,13.61-1.29,2.71-.14,11.16,4.57,8.65,1-.54-2.85-1.52-2.53-2.36.12-.33,8.64,2.62,9.87,1.95-1.6.54-15.22-7.84-7.13-6.59,1,.16.51,1.88,1.26,2.28a24.55,24.55,0,0,0,6.48,2.34c.91.23,7.87,1.42,7.73,1.53-1.91,1.62-4.46.55-6.34,2.52C151.34,366.86,154.37,367.39,153.87,368.41ZM361.61,145.77c-.41,9.38,1.56,19.63-3,28.16-2.19,4.13-5.08,8-6,12.66s-.65,7.69-2.82,12.1c-4.73,9.6-12.3,16.68-18.6,25.2-11.76,16-22.12,32.88-34.1,48.69-6.12,8.08-12.74,15.9-20.54,22.41-7.42,6.2-17.21,15.16-26.25,18.38-.55-3.15,20.27-18.2,23.36-21.13a236.77,236.77,0,0,0,26.12-28.79c8-10.58,15.58-21.5,23.26-32.33,3.78-5.34,7.45-10.83,11.47-16,3.44-4.4,4-8.48,6.9-12.8,1.48,2.46,5.95-6.5,6.36-8-1-.21-3.24,3.61-3.75,4.24,1.31-3.91,7.14-10.13,6.06-14.68a1.26,1.26,0,0,0-1.19.92c-.36-7.08,4.77-11.81,5.1-18.17,0,1.11-3.7,3.46-4.35,4.86-1.7,3.67-1.07,8.76-1.54,12.73-.68,5.75-4.45,12.47-8.56,18.65-11.65,17.5-23.13,35.17-36.41,51.49-5.45,6.7-9.67,13.09-15.83,19.24-7,7-13.15,14.95-20.33,21.89-13.24,12.79-30.92,23-40.28,39.36,3.7.4,12.24-13.74,13.54-12.71,4.07,3.22-9.87,9.26-3.76,12.29,3.79,1.89,13.83-1.18,18.16-1.32a109.83,109.83,0,0,1,18.57,1.12,102.2,102.2,0,0,0,16.1,1.37c5.87-.12,11.57-2.36,17.32-2.43,4.82-.06,9.9,2.09,13.79,4.88,1.62,1.15,2.78,1.64,3.86,3.37.27.45-1.33,4-.27,4.53,1.64.81.9-2.11,1.82-2.18,4.06-.33,6.15,7.59-2.44,5.92-1.42-.28-6.82-2.92-6.78-.16.06,3.57,7.08,2.45,7.88,5.38,0,0-3.84.06-3.84.09-.59,1,1.55,2.43-1,2.27-1.41-.09-1.05-1.72-2.12-2.66s-2.33-2.9-3-3.38c-1.4-1-.54-2.23-2.77-2.32-5.76-.25,8.91,9.75,8.11,10.58-1.79,1.84-8.17-6.32-10.43-5.22-3.78,1.86,5.44,11.25,4,12.87-1.07,1.17-4.86-2.7-6.54-2.16-1.9.61,1.85,3.5.67,4-4.3,1.7-4.93-8.72-7.41-6.91-3.52,2.57,7.74,8.79-.69,7.8.39.42-.68,5.55-.65,6.88.06,2.74-4.58-1.48-4.86-1.85-1.89-2.5-.53-2.92-1.36-5.4-3.83,2.17-2.76-4.51-3.18-5-3.09-3.79-3.18-.9-2.55,1.41.29,1.06,3.37,3.58,3.92,5.77,0,.23,1.34,7.77,2,6.81-1,1.55-3.61-2.23-4.1-1.36-.61,1.07,2.07,3.11,2.62,3.72-.38,0-11.9,1-11.06-.69,1.29-2.65,6.13,1.31,6.54-2.62s-7.67-4.43-10.17-4.33c-10.56.4-20.36,2.94-31.16,2.51s-21.45,0-32.18.3c-1.77.05-26.17,1.39-25.05-2.46.32-1.11,42.76.64,47.41.59,8.62-.09,17.56.89,26.13.31,3.21-.21,6.23-1.13,9.39-1.67,2-.34,10.66.2,11.86-1,.59-.6-.88-2-.2-2.74s2.25-.1,3.15-.73c-1.3-.15-2.57-1.89-3.84-2.28-2.41-.75-5.35.18-7.76.51a143,143,0,0,1-14.95,1.66c-3,.09-27.37.35-27-2.51,0-.42,46.31-.32,50.44-3-3.31-4.26-9.16-1.22-13.23-.34-6.74,1.44-13.61,1.36-20.46,1.12-14-.51-27.63.41-41.58.75-3.87.09-8,1.28-11.52,1.31-1,0-8.38-3.52-6.94.25,2.05,5.37,32.82-1.94,33.08.26s-10.65.41-10.53,2.13c.14,2.14,41.95-2.13,43.69,1.54-13.79,2.45-28.88-.39-42.91.92-3.48.33-35.72,3.68-35.2.05.43-3,19.83,1,22.35.28-5-4.36-14.11-3.48-20.35-2.55-1.62.24-8.84,1.84-9.27-1.33-.23-1.65,14.67.67,16-.29,3.74-2.68-4.77-1.27-4.31-.83-1.87-1.81,3.16-4.21-4.81-3.89-.64,0-14.09,3.43-12.62-.17.27-.68,6,.94,7.2,0-.71-.41-5.37-1.21-5.46-1.85-.24-1.67,26.07.4,26.43,1.63-.64.12-2.94,0-3.4.66.6.05,8.05,1.22,8.12.54a1.58,1.58,0,0,1-.66-2c4.61-2.27,18-.37,23.62-.79,3.47-.25,7.34-.77,11.15-.89-2.89-.23-5.32-.76-6.58-1.89,16.55-2.78,33.21,1.83,49.91-.64,2.54-.38,7.15-2.2,9.51-2.11,4.66.2,1.71.25,5.08,3.28,1.41,1.27,1.52,3.09,4.17,2.15,4.08-1.43-1.62-2.81.39-4.43,1.55-1.23,5.9,5.1,5.93,5.09,2.82-1.29-3.14-6-3.76-6.4-3.47-2.08-6.81-1.55-10.68-2.49-10.8-2.62-21.42,1.7-32.87,1.52-14-.22-27.68-.7-41.65.27-2.38.16-28.87,3.16-28.27-.21.2-1.12,45.58-2.78,50.09-2.59,9.78.4,19.37,1.52,29.16.71,2.2-.18,23.3-2.18,23.54-3.09.3-1.13-20.59,1.55-23.12,1.64-9.57.35-19.09-.89-28.64-1.18-17-.5-36.45,5.15-53.1,1.76-7.14-1.45,4.52-2.38,7.12-2.59,10.79-.85,21.48-1.06,32.23-2.57a138.84,138.84,0,0,1,29.39-1c3,.2,22.43,2.95,23.53-.31-19.58-1.38-38.75-3.77-58.26-.35-3.89.69-46.66,3.57-46.65,4.39,0,1.17,2.52.56,3.29.65-.22.94-2.68.77-2.33,1.77.43,1.2,5.39-.6,6.92-.4-1.79,2.42-7.36,3.11-10.29,2.65-.11,0-5.91-2.46-6.34-2,.3-.9,4.31-4.88,4.9-5.14,3.65-1.58,4.72.73,8.54-2.43,1.48-1.23,13.95-18.7,14.32-18.52,2.76,1.36-.53,5.15.58,6.36,2.39-2.45,7.14-9.73,1.1-7.07.62-6.73,10.1-13.11,14.88-17.08,7.27-6.06,13.93-12.78,21.23-18.8,14.5-11.95,28.36-24.55,40.43-39,6.26-7.51,12.93-14.59,19.59-21.73,5.47-5.88,10.2-13.91,15.75-19.28,1.38-1.34,2.42-.08,3.9-1.52,3-2.9,5.36-7.8,7.77-11.29,1.19-1.73,14-18.66,12.84-19.17-.59-.27-11.33,15.79-13.24,17.22-.92-1.49,3.58-4.6,4.26-5.93,1.31-2.56-1.09-.72.94-4.41,1.07-1.95,3.71-4,5.14-5.77,3.2-4.1,12.15-17.82,6.68-21.66,0,3.42,1.5,5-.94,7.54.71-.75-3.08-1.16-3.87-.77.81-.4-1.67,4.4-1.51,4.18a73.63,73.63,0,0,1-5.4,5.94c-10.44,10.16-24.06,20.2-32,32.77,1.1.33,5.41-4,6.72-4.41-3.6,6.06-9.34,11.32-14.42,16.28-3.48,3.41-7,6.74-10.3,10.33-2.25,2.46-5.84,4.48-7.81,6.85-1.7,2-2.25,4.67-4.48,7-3.3,3.45-6.53,7-9.77,10.49-6.88,7.46-13.76,14.95-21.35,21.7-15.33,13.62-32.45,25.83-45.5,41.78-5.88,7.18-11.28,14.74-17.28,21.83-3.71,4.4-16.05,12.44-16.2,18.3-3.89-2.8,7.62-11.31,9.77-14,5.06-6.28,10.47-12.14,15.32-18.59a230.46,230.46,0,0,1,16.45-19.14c4.24-4.51,12.22-9.54,14.75-15.25,23.17-19.24,41.5-42.91,62.43-64.38,4.57-4.68,10.08-9.22,13.86-14.55,4.28-6,6.51-13.31,10.93-19.47,8.56-11.92,19.52-22,20.92-37.33.73-7.89-1.25-8.88-9.46-10-6.92-.91-13,.76-19.11,3.91-13.61,7-22.16,17.6-31.81,29-7.94,9.39-21.32,14.88-33.56,16.85-4.8.77-9.1.41-12.47-3.48-2-2.32-3.34-15.72-3.51-15.79-2.3-1-1.32,2.21-2.64-.77s.33-7.95,1.23-10.77a68.71,68.71,0,0,1,7.45-15.29c6.19-9.91,14.59-21,23.51-28.63,4.17-3.56,8.66-6.33,12.76-10a43.74,43.74,0,0,1,10.64-7.37c3.16-1.43,6.14-1.5,9.44-2.82,1-.39,2.85-2.25,4.39-2.87s6.35-.36,6.91-1.28a2.17,2.17,0,0,1-.37-1.77c5.55-1.33,13.82.31,19.69.45,5.34.12,10.83,1.48,16.13,1.21,8.14-.42,22.74,3.91,29.17,9.84,9.28,8.55,15.05,17.56,15.24,30.24.11,7,.58,14.36-.34,21.34-.52,4-5.7,12.62-4.17,16.12,3.64-8.08,5.77-14.64,5.63-23.61,0-2.13-.53-22.35.9-22.27,3.31.18.3,9.63,1.49,11.59.28-1.8.29-9.69,1.69-10.6s5.17,7.35,5.36,8.29c.77,3.92-1.22,7.56-1.39,11.42ZM145,358.54c-.37-.44,0-.63.75-.65a9.19,9.19,0,0,1-.75.65Zm9.1-10.26a2.53,2.53,0,0,1,1.77-.65c-.06,2-1.88,2.74-1,4.66.43,1,4.08,1.25,4.19,2.72.13,1.64-6.27-.92-6.55-.94-.56,0-.11-1.86-.19-2.48,0,.84-3.48,2.49-.2,4.45,1.78,1.06,6.11.09,8.38.59.69,4-2.86,3.39-5.72,2.74-.09,0-6.57-1.57-9-1.49,3.07-2.95,4.34-7.61,8.35-9.6ZM151,340.82c9.62-19.15,26.19-32.48,41.54-46.7a2.79,2.79,0,0,1,2.34-1.05c-8.21,7.66-17.19,15-24.64,23.39C163.35,324.27,158.9,333.82,151,340.82Zm3.68,18.56h0Zm17.1-33.6a3.52,3.52,0,0,1,2.65-1.82l-1.32,2a132.73,132.73,0,0,1,10.23-13.57c4.68-5.14,10.66-9.18,15.6-14.18,6-6.08,12.73-11.54,19.3-17,26.19-21.75,45.79-50.46,71.86-72.32-8.69,12-20.1,21.73-30.11,32.81-10.94,12.12-22.28,24.39-34.44,35.29-12.64,11.33-26.08,21.68-38.08,33.73-11.64,11.7-20.37,26.18-31.73,38.26.06-2.33,1.53-4.84,3.56-7.35,1-4,11-13.77,12.49-15.82Zm-15.87,41.34c-.22.51,10.1.88,9.83,2.82C165.68,370.55,154.82,369.72,155.93,367.12Zm1.8,25.53c-.06-.09,5.65-1.44,6.85.91C165,394.4,158.76,394,157.73,392.65Zm85.55-2.44c-3.76,3.05-13.45,5-18.13,6.48-6.48,2.07-13.42,3.43-20.06,4.94-7.44,1.69-14.81,1.22-22.35.47-7.17-.71-7,2-12.3,6.68-3.35,0-4.93-3.93-3.5-6.88.64-1.32,6.15-3.23,6.06-4-.48-4-8.76,2.38-9.3,1.62-.93-1.29-6.68.56-4.6-1.89,4-4.73,12.91-1.87,17.72-1.76,14.39.33,29.21-5.06,43.51-4.3-1,1.7-7.63,1.43-9.28,2.25C221.51,395.7,233.27,387.67,243.28,390.21ZM158.94,351c0-.06,0-.1,0-.13s0,.1,0,.13Zm9.67,5c1.32.7,15.07-1.62,15.26-.22.3,2.29-21.34,1.26-23.47.84.69-1.39,12.36-4.11,12.72-2.83C173.53,355.2,169.25,355.25,168.61,356Zm-.26,10.77c-.54,1-7.09.58-7.31-.26C160.37,363.84,169.39,364.76,168.35,366.74Zm-3.13,16.87q2.7,1.08,5.33,2.31c1,.46-2.82.35-3.2.25C163.77,385.2,165.64,383.77,165.22,383.61Zm10.22-6.46c.11.56-8.15,2.37-8.37.58a.68.68,0,0,1,.92-.65C168.92,377.19,175.13,375.62,175.44,377.15Zm18.66,10.24c-.06.67-21,1.12-20.93-.6a2.39,2.39,0,0,1,2.39-.39C177.83,386.42,194.17,386.52,194.1,387.39Zm-10.21-2.93c-2.5.61-7.84-1-9.27-3.08C175.88,380.83,183.3,383.58,183.89,384.46Zm8.35-43.55c.16.13,49.66-52.84,55-58.24,5-5.06,10.29-9.89,15.37-14.74,3.13-3,5.08-7.17,7.1-9.21,4.27-4.32,9.38-8.74,13.68-13.65,1.73-2,4.17-5.54,6.83-9-2,1.42-3.66,2.12-4.77,1.6-7.85,9-15.17,18.21-23.39,26.83-4.53,4.75-9,9.56-13.67,14.18-.65.64-10.5,9.61-10.49,8.47,0-2.26,10.49-10.41,12.2-12.31,4-4.49,7.94-9.07,12.26-13.3s8.89-8.48,12.77-13.28c2.14-2.65,6.08-12.11,10.31-10.66,6.9-7.74,12.91-16.27,19.39-24.59,3.61-4.64,7.18-9.39,10.73-13.95,3.21-4.12,5-9.23,7.95-12.82,6.74-4.37,3.13,6.74,2,6.79-.58,0,.68-4.06-.59-4,1.13-.05-5.06,10.66-5.82,11.86-3.27,5.08-6,10-10,14.59-1.33,1.55-5.46,6.94-10,12a5.9,5.9,0,0,1,.91-.33c-2.73,7.39-10.79,11.57-14.1,18.3,5-2.09,8.51-8.22,12.23-12.31,1.11-1.23,11.67-15.28,10.79-15.49,1.28.3-.67,2,.52,2.49.75.28,8.41-11.3,9.12-12.62,1.07-2,1.54-4.85,3-6.62.7-.86,2.15,1,3.26.1,3.73-2.94,4.23-9.94,6.85-13.77a43.68,43.68,0,0,1,3.61-3.93c.71-.79,1.33,1.34,1.52,1.17.52-.47.81-4.48-.11-4.83.38.15-9.88,10.79-8.91,1.41,0-.48,4.45-5.22,4.81-6.27.5-1.47,1.69-8.1.64-9.37-3.85-4.66-2.86,4.19-2.57,6.21.77,5.48-1,4.87-3.29,8.76a63.9,63.9,0,0,1-5.73,8.15c-11,14.17-24,27.38-34.27,41.92-8.89,12.55-22.56,25.19-33.83,37-13.47,14.14-29,25.75-42.86,39.41-12.11,11.9-23.91,25.23-34.81,38.19.19,0,11.45-2.45,10.87-1.15.59-1.31.65-2.54,1.54-4.27.77-1.48,3.93-6.28,5.87-6.46a52.4,52.4,0,0,1-3,5.09c.13.05,33.63-37.51,34.57-35.21,1.09,2.68-37,35-33.41,37.77Zm2.31-31.11c1,2.56-13.2,16.59-15.38,17.93C181.5,321.16,189.24,314.09,194.55,309.8Zm73.33,72.5a1.93,1.93,0,0,1-1.66.92c-14.49,2.84-30.7.65-45.42.92-1.74,0-42.46-2.12-38.77-8.7-.93,1.67,28,1.42,29.66,1.69,6.24,1,1.95,1.58-2.16,1.41-2.24-.09-17-.68-17.12.84C192.06,383.35,262.22,381.34,267.88,382.3ZM207,389.84l-1.29.18c-2.26,0-22.26,2.05-22.45-1C183.25,388.64,204.7,389.26,207,389.84Zm-12.5-80.08c1.82-1.57,20.05-16.89,20.07-16.85C215.94,294.65,197,310.17,194.51,309.76Zm23.72-13.35c-2.65,2.36-26,21.1-23.09,23.38.6.46,20.09-20.34,23.09-23.38ZM226.16,311c-.24-.7-27.58,26.66-25.74,28.06C201.34,339.72,223.62,314.1,226.16,311Zm-24.87,13.45c-1.52-.67,7-7.89,7.94-8.6S203.26,325.29,201.29,324.42Zm.42-24.71c-.54-.94,6.55-6.28,7.4-6.76C209.59,293.49,202.53,301.13,201.71,299.71Zm3.4,57.76c3.28-.84,16.14-1.84,19.53-.18C223.19,359.43,207.12,359.84,205.11,357.47Zm79.4-101.84c-6.68,8.07-82,79.61-78.88,82.64-1.85-1.91,44.33-44.6,48.56-48.67q12.4-11.94,23.74-25c2.84-3.28,5.8-7.58,8.95-11.86l-2.36,2.88ZM265.72,283.8c4.63-4.71,14.24-10.71,15.93-17.37,6.1-7,10.7-15.58,17.16-21.87,1.59-1.54,15.08-16.06,13.5-17.33s-6.43,9.88-7.53,9c-2.41-1.89,11.36-18,12.48-19.4,2.4-3.07,7.73-7.1,9.11-10.62,1.52-3.86.52-3.16-2.18-1.31-3.26,2.24-6.41,9-8.9,12.23-3.41,4.46-6.93,8.82-10.46,13.18-3.78,4.66-7.49,9.38-11.23,14.08a33,33,0,0,1,7.6-6.4c-11.88,19.14-29.62,37.77-45.86,53.29-4.15,4-49,43.79-46.3,46.41.56.54,32.33-32.37,36.08-35.3a210,210,0,0,0,20.6-18.61Zm-56.35,9.41c-.51-.57,9.9-10.31,10.85-9.06C220.72,284.81,210.45,292.35,209.37,293.21Zm56.21,68.28c2.68-.28,11.78-1.16,14.06-3.28-4-2-11.05,1.12-15.29,1.56-5.41.57-10.63,0-16-.49-2.68-.25-7.4.06-12,.07a20.84,20.84,0,0,1,4.79,1c-10.35,1.13-21-.57-31.24,2,5.15.78,10.92-.73,16.15-1,6.95-.32,13.87.1,20.82.35a131.56,131.56,0,0,0,18.73-.27Zm-14.21-57.23c8.18-6.58,16.84-13.52,22.91-22.17-1.26,1.23-2.72,2.4-4,3.58.13-.93.13-1.39,0-1.39l-.08.06s0,0,0,0a.35.35,0,0,0-.1.09l0,.05,0,0q-1,3-3.35,2.73a5.56,5.56,0,0,1,.36-.92c-.4.42-.82.83-1.24,1.25l.52-.32c-.09,4.55-10.18,11.07-13.22,13.58-4,3.32-10.61,10.78-15.77,12.18a6.76,6.76,0,0,1,.29-.69l-1.43,1.35c.24-.13.48-.25.74-.36-1.28,2.23-18.13,23.69-19.78,22.24-.61-.52,11.85-13.9,13-15.77.55-.61,1.08-1.26,1.6-1.91l-.11.11c-3.06,2.93-18.17,14.37-17.36,18.47,1.17,5.95,17.23-9.43,18.43-11.26q-.31-1.12-1.32-.39c-2.36-1.53,18-18.95,19.84-20.43Zm28.35,72.25c-3.47-.31-9.22,1.62-13,1.88-5.72.38-11.38,1.06-17.13,1.2-2.53.06-32.49,1-32.58-.09.05.57,63.41-4.51,63.63-3.61A.73.73,0,0,1,279.72,376.51ZM238.54,290c-1.09,2.37-5.09,5-7.12,6.67-4.67,3.94-9.12,7.9-13.83,11.81,3.91-8.45,15-14.21,21.23-20.91C240.4,285.73,238.6,289.82,238.54,290Zm-13.56.64c3-1.48,9.88-6.55,11.49-9.46C235.18,281.39,224.23,290,225,290.61Zm4.59-13.73c-.62.77-1,.74-1.07-.09.91-1.77,13.22-15.07,14.19-14.25C243.43,263.17,230.85,275.75,229.57,276.88Zm-.41,30.1c.84.82,7.94-7,8.53-7.73C236.42,299.74,228.42,306.27,229.16,307ZM272,346.12c-3.21.34-39.52-1.29-39.7-.3,0,.24,24.76,2,27.57,2,7.71-.31,15.6-2.47,23.2-2.49,3,0,4.52-.22,6.72,1.84.61.58-2.65.35-2.59,1.3.07,1.12,7.38-.29,1.72-4.17C285.33,341.78,276.1,345.7,272,346.12Zm-38.69-68.36c3.42-5,8.79-9.28,13-13.61C247.12,264.81,235.21,279,233.34,277.76Zm28.51,109.92c-4.3,1-9.44.27-13.82.28,0,.27-12.6-.12-13.06-.24C242.51,386.31,254.4,386.22,261.85,387.68ZM247.1,121.22c-4.51,2.42-8.3,4.89-9,6.25C240.92,126.89,244.39,123.55,247.1,121.22Zm15.32,176.55c-1.14-1.66-25.11,18.8-23.86,19.9C239,318.08,260.5,299.35,262.42,297.77ZM246.22,371c1.91-.33,9.64-1.41,11,.15a25.6,25.6,0,0,1-5.6.27A48.71,48.71,0,0,1,246.22,371Zm.31-112.68c-.76-.67,8.49-9.63,9.53-10.76,3.05-3.26,7-8.9,3.75-2.45C259.08,246.52,246.53,258.27,246.53,258.27Zm5.78-.37c.93,1-4.89,6.11-5.43,6.69C245.82,263.65,250.9,256.44,252.31,257.9ZM283,207.71C281,207,267.88,221.94,265.76,224c-2.34,2.21-16.71,17.54-15.87,17.66C260.16,229.83,273.68,220.13,283,207.71Zm-32.12-88.45c4.53-1.36,13.92-4.24,13.92-4.19,0-1.73-7.06.85-13.92,4.19Zm10.87,220.05c.39-1.68-7-1.32-7.58-1.48C251.07,338.3,261.56,340.31,261.79,339.31Zm.88-93c.82,1.43-8.09,10.73-8.62,10.32C253.31,256.05,261.28,247.23,262.67,246.32Zm.79-126.09-2-.27a39.75,39.75,0,0,0-7.25,2.94C255.77,124,261.8,120.79,263.46,120.23Zm23.93,96.71A42.94,42.94,0,0,1,280.45,228c-.85,1-12,12.79-12.45,12.32-1.07-1.14,2.44-3.87,3-4.28C276,232.25,279.93,217.7,287.39,216.94Zm-15-101.7c2.16-.68,3.73-2.35,5.85-2.86,2.88-.7,5.2,1.57,8,1.26a13.87,13.87,0,0,0-10.4-2.17c-.69.16-7.35,2.49-7.69,2.91A13,13,0,0,0,272.36,115.24Zm-3.73-18.91h6.26c6-.33,12.37.36,18-2.16C291.22,91.8,270.81,94.17,268.63,96.33Zm.07,241.91c4.05,1.49,10.91,2.74,15.27,2-4.49-1.21-9.4-1.49-14-2.12ZM274.36,282c1.9-.86,1.26-3-.66-2.75-1.36.18-2.64,1.67-3.77,3.24,1-.93,2-1.56,2.85-1.39-.14.55-.17.8-.08.75l-.19.2.24-.23h0s0,0,0,0l0,0c.51-1,1-.91,1.6.21Zm-4.19,2.38s0,0,0,0v0ZM280.24,267c-2.07,4-5.81,6.52-8.87,9.63A29.83,29.83,0,0,1,280.24,267Zm-7.53,14.77a0,0,0,0,0,0,0v0Zm37.58-147c2.83,4.63.26,8,1.8,12.18,4-5.63-.92-13.58-4.12-17.92a19,19,0,0,0-7.29-6.19c-1.92-.84-10.1-3-12.2-1.77a18.86,18.86,0,0,0,4.31,1.51c-1.65,0-19.26-6.1-19-3.8,0-.37,7.73,1.58,8.73,2a123.62,123.62,0,0,0,16.34,6.46C303.6,128.79,307.56,130.39,310.29,134.84ZM278.65,277.5c-.75.39-.81.77-.18,1.12C279.18,278.22,279.25,277.85,278.65,277.5Zm42-146c0-8.68-6.39-15.73-13.77-19.57-2.55-1.33-26.75-6.9-27.09-4.73s21.09,4.41,23.63,5.49c7.36,3.12,13.75,10.5,14.42,18.44a17.81,17.81,0,0,1,.67-4.53c3,7.89,1.55,23.53-2.06,30.88-1.15,2.33-13.55,23.41-12.77,24.05,2.8,2.32,12.27-18.21,13.22-20.11C321.54,152.11,319.48,141.75,320.63,131.46Zm-4.89,95.89c.95-1.4,9-12.81,8-13.43-.28-.18-24.42,36.05-26.4,38.64-2.54,3.33-4.88,6.85-7.49,10.12-1.7,2.11-5.31,5-6.42,7.49-3.27,7.41,4.59-1.77,6.42-3.85,6.33-6.47,15-16.45,18.47-24.77A71.4,71.4,0,0,1,315.74,227.35ZM304.67,193.4c-4.14,6.32-9.13,13.73-14.56,15.52,1.37-2.93,19.46-24.48,19.77-24.24a1.26,1.26,0,0,1-.52,1.93c-.94,1.19-2,2.68-3.06,4.33,1.1-1,3.18-1.71,3.87-2.83.84-1.36.31-5.93,1.53-5.93,6.05,0-7.76,18.45-8.38,19.27-4.82,6.43-10.25,15.91-17.62,19.7,1.83-3,4.67-5.1,6.57-8a1.75,1.75,0,0,0-1.65,1.17l-2.12,1.51c3.54-7,10.14-12,14.32-18.48a29.32,29.32,0,0,0,1.85-3.9ZM296,190.84c-.07-1.07-10,8.8-9.24,9.35C287.38,200.61,295.48,191.48,296,190.84Zm-1.52-71.27a20.82,20.82,0,0,1,12.41,5.6c.78.74,5.72,7.7,6.35,7.11,3.73-3.52-20.36-19.81-22.88-14.47C289.68,119.31,293.85,119.8,294.51,119.57Zm11.1,65.19a63.07,63.07,0,0,1-14.11,16.13,5,5,0,0,1,1.56-3.49C295.15,194.25,301.3,185.23,305.61,184.76Zm-3.35-47c-3.16-1.83-6.29-3.93-10.12-3.54C293.65,134.84,301.47,138.64,302.26,137.72Zm3-11.71c1.19,1.67,3.29,2.83,3.53,5.08-2.95-1.75-5.18-4.29-8.24-5.88-2.43-1.26-5.26-1.39-7.71-2.55C297.27,122.21,301.26,124.33,305.23,126Zm-5,229.13c-.08-.19-3.37-4.42-4.37-3.31C294.6,353.25,301,356.83,300.24,355.14Zm-2.63-249.62c1.31.31,8.65,3,9.57,1.86-2-1.32-4.92-1.56-7.25-2.09Zm6.76,238.83c-2-.91-2.88-3.6-5-4.73a61.86,61.86,0,0,1,2.31,6.29c1.86,1.76,8.46,1.68,8.22-1.84-.46-.56-3.17,1.35-5.54.28Zm8.06-183c4.34-7.91,5.83-20.18,4.23-29.34-1.41.25-1.65,13.82-1.76,15.08.61,8.22-2.61,11.52-6.31,18-1.13,2-7.79,17.1-8.6,16.84C303.09,182.89,311.13,163.67,312.43,161.31ZM301,221.49c2.14-.13,4.45-6,4.49-6C304.11,215.72,299.56,221.13,301,221.49Zm2.09,135.79c-4.38,3,6.68,8.39,6.74,6.2C309.28,362.56,304,356.71,303.12,357.28Zm22.26-212.43c-.1-5.39-1.51-11.66-2.8-16.88-1.15,6.12,1.3,13.15.87,19.42a28.4,28.4,0,0,1-1.92,9.34c-1.19,2.84-4.55,6-4.16,9.25C322.85,161.65,325.54,151.49,325.38,144.85Zm-4.74,80.06,1.19-1C322.11,222.6,319.12,224.78,320.64,224.91Zm.18-53.52c-.24-1.13,3.79-5.8,4.14-6.27C326.35,163.27,321.33,173.81,320.82,171.39ZM324,220.81c.87.57,5.09-7.64,8.66-14.94-1.91,2.13-11.14,13.31-8.65,14.94Zm2.44-10.52c1.06.57,5.52-6.08,6-7C331.24,201.21,326.07,210.1,326.44,210.29Zm9.06-18.07c-.42-.33-6.38,6.91-5.43,7.15C330.23,199.33,336.84,193.27,335.5,192.22Zm-2.9-10.46c1.51-.57,3.61-6,4.18-7.12C337.05,172.81,332.26,180.3,332.6,181.76Zm.73,22.74c2.48-5.1,4.5-9.41,4.6-9.4-1.17-.13-3.59,6.62-4.59,9.4Zm7-48c3.24,1.07,1.68-16.9,1.65-18,0,.66-.09-3.88,0-4,1.83-2.65,1.53,4.67,1.51-2.46,0-1-.07-5.79-2-5.07-1.71.64-.58,29.7-1.13,29.52Zm8.44-4.54c0-.41.44-3.59-.74-3.94-.25,2.43-.06,5.52-1.47,7.56-.12-.53.39-3.54-.12-3.69-.8-.23-6,10.7-3.8,12.83C345.59,167.65,348.64,154.31,348.78,152Zm-3.13,17.84c-.42-.59,2.33-7.3,2.27-8.19a13.76,13.76,0,0,0-2.93,6.48A1.61,1.61,0,0,0,345.65,169.84Zm2.23-27.27c.08-2.11.16-4.21.16-6.32.27,0,.07-6.21,0-6.91C346,133.37,347.05,138.36,347.88,142.57Z"></path></svg> 